<svg xmlns="http://www.w3.org/2000/svg" width="50" height="50" viewBox="0 0 256 256" xmlns:v="https://vecta.io/nano"><path d="M112.69 10.24c-33.213-.354-63.98 8.866-80.65 27.28a5.12 5.12 0 0 0 6.12 8c11.134-5.662 24.599-9.598 38.67-9.68 51.703-.296 115.5 30.21 115.5 30.21a5.12 5.12 0 0 0 4.77-.16l30.66-17.52-28.03 191.53c-.409 2.8 1.53 5.401 4.33 5.81s5.401-1.53 5.81-4.33l30.72-209.92a5.12 5.12 0 0 0-4.9-5.93 5.12 5.12 0 0 0-5.24 4.45l-.77 5.23c-23.227-9.009-70.719-24.478-116.99-24.97zm-.1 10.24c40.574.431 81.043 12.962 105.17 21.8l-23.61 13.49c-4.114-1.987-63.565-30.478-117.38-30.17-1.992.012-3.782.628-5.74.77 12.334-3.861 26.566-6.05 41.56-5.89zM97.28 51.2s-20.637-.036-41.14 12.95-40.78 39.463-40.78 89.45c0 0-.285 51.597 15.77 89.06 1.116 2.601 4.129 3.806 6.73 2.69s3.806-4.129 2.69-6.73C25.885 204.403 25.6 153.6 25.6 153.6c0-47.293 18.123-69.456 36.02-80.79s35.66-11.37 35.66-11.37 17.763.035 35.66 11.37 36.02 33.497 36.02 80.79c0 0-.285 50.803-14.95 85.02-1.116 2.601.089 5.614 2.69 6.73s5.614-.089 6.73-2.69c16.055-37.463 15.77-89.06 15.77-89.06 0-49.987-20.277-76.464-40.78-89.45S97.28 51.2 97.28 51.2zm-.15 40.96a5.12 5.12 0 0 0-1.96.42c-16.746.574-30.349 6.518-39.9 15.76-9.894 9.573-15.717 22.099-18.2 34.56-.076.243-.526 1.617-.81 4.12-.26 2.295-.412 5.976-.36 10.84a5.12 5.12 0 0 0-.06.86c0 36.328 5.359 57.892 15.73 83.82a5.12 5.12 0 0 0 8.899 1.411 5.12 5.12 0 0 0 .601-5.211c-7.494-18.734-12.101-34.271-13.99-55.44 4.804 4.379 10.75 7.862 17.31 10.25.469 10.351 1.984 18.472 7.14 23.96 5.493 5.847 13.825 7.464 24.44 7.62a5.12 5.12 0 0 0 1.16.15h.3a5.12 5.12 0 0 0 1.12-.15c10.636-.152 18.98-1.765 24.48-7.62 5.156-5.488 6.671-13.609 7.14-23.96 6.56-2.388 12.506-5.871 17.31-10.25-1.889 21.169-6.496 36.706-13.99 55.44a5.12 5.12 0 0 0 5.471 7.159 5.12 5.12 0 0 0 4.029-3.359c10.371-25.928 15.73-47.492 15.73-83.82.001-.268-.019-.535-.06-.8.054-4.899-.098-8.595-.36-10.9-.284-2.503-.734-3.877-.81-4.12-2.483-12.461-8.306-24.987-18.2-34.56-9.558-9.248-23.168-15.204-39.93-15.77a5.12 5.12 0 0 0-1.93-.41zm.15 10.27c15.422.039 26.673 5.328 34.88 13.27 8.238 7.971 13.35 18.782 15.43 29.61.054.279.131.554.23.82 0 0 .062-.057.3 2.04s.469 5.828.3 11.86c-.333 11.852-10.057 20.799-24.48 25.1a5.12 5.12 0 0 0-3.66 4.82c-.202 11.455-1.914 17.574-4.71 20.55-2.779 2.958-7.995 4.511-18.29 4.53-10.295-.019-15.511-1.572-18.29-4.53-2.796-2.976-4.508-9.095-4.71-20.55a5.12 5.12 0 0 0-3.66-4.82c-14.423-4.302-24.147-13.248-24.48-25.1-.169-6.032.062-9.763.3-11.86s.3-2.04.3-2.04a5.12 5.12 0 0 0 .23-.82c2.08-10.828 7.192-21.639 15.43-29.61 8.207-7.942 19.458-13.231 34.88-13.27zm-24.27 25.6c-5.183.289-10.226 2.306-13.4 5.48-6.339 6.349-2.815 14.92 4.65 22.39 7.465 7.46 16.031 10.994 22.38 4.65 6.354-6.349 8.065-20.17.6-27.63-3.732-3.732-9.047-5.179-14.23-4.89zm48.54 0c-5.182-.289-10.5 1.158-14.23 4.89-7.465 7.46-5.749 21.276.6 27.63 6.339 6.339 14.915 2.81 22.38-4.65 7.465-7.47 10.994-16.036 4.65-22.39-3.18-3.172-8.218-5.191-13.4-5.48zm-24.27 35.81c-5.652 0-10.24 12.664-10.24 18.24 0 5.571 4.588-1.01 10.24-1.01s10.24 6.581 10.24 1.01c0-5.576-4.588-18.24-10.24-18.24z" fill="#424242"/></svg>