<svg version="1.1" xmlns="http://www.w3.org/2000/svg" xmlns:xlink="http://www.w3.org/1999/xlink" width="50px" height="50px" viewBox="0,0,256,256"><g fill="#424242" fill-rule="nonzero" stroke="none" stroke-width="1" stroke-linecap="butt" stroke-linejoin="miter" stroke-miterlimit="10" stroke-dasharray="" stroke-dashoffset="0" font-family="none" font-weight="none" font-size="none" text-anchor="none" style="mix-blend-mode: normal"><g transform="scale(5.12,5.12)"><path d="M22.00977,2c-6.48691,-0.06912 -12.49605,1.7316 -15.75195,5.32813c-0.32404,0.35769 -0.34639,0.89577 -0.05314,1.27911c0.29325,0.38334 0.81844,0.50255 1.24845,0.28339c2.17468,-1.1058 4.8045,-1.87468 7.55273,-1.89062c10.09827,-0.05777 22.55859,5.90039 22.55859,5.90039c0.29671,0.14379 0.64523,0.1321 0.93164,-0.03125l5.98828,-3.42188l-5.47461,37.4082c-0.07982,0.54689 0.29881,1.05494 0.8457,1.13477c0.54689,0.07982 1.05494,-0.29881 1.13477,-0.8457l6,-41c0.0456,-0.284 -0.03328,-0.57388 -0.21649,-0.79561c-0.18322,-0.22173 -0.45303,-0.35384 -0.74054,-0.36259c-0.51383,-0.01639 -0.95638,0.35945 -1.02344,0.86914l-0.15039,1.02148c-4.53643,-1.75958 -13.81228,-4.78094 -22.84961,-4.87695zM21.99023,4c7.92456,0.08419 15.82862,2.53173 20.54102,4.25781l-4.61133,2.63477c-0.80343,-0.38812 -12.41501,-5.95271 -22.92578,-5.89258c-0.38916,0.00226 -0.73864,0.12271 -1.12109,0.15039c2.40892,-0.75412 5.18868,-1.18159 8.11719,-1.15039zM19,10c0,0 -4.03057,-0.00694 -8.03516,2.5293c-4.00459,2.53624 -7.96484,7.70755 -7.96484,17.4707c0,0 -0.05576,10.07758 3.08008,17.39453c0.21789,0.50806 0.80639,0.74328 1.31445,0.52539c0.50806,-0.21789 0.74328,-0.80639 0.52539,-1.31445c-2.86417,-6.68305 -2.91992,-16.60547 -2.91992,-16.60547c0,-9.23684 3.53974,-13.56553 7.03516,-15.7793c3.49542,-2.21376 6.96484,-2.2207 6.96484,-2.2207c0,0 3.46943,0.0069 6.96484,2.2207c3.49542,2.21376 7.03516,6.54246 7.03516,15.7793c0,0 -0.05576,9.92242 -2.91992,16.60547c-0.21789,0.50806 0.01733,1.09656 0.52539,1.31445c0.50806,0.21789 1.09656,-0.01733 1.31445,-0.52539c3.13583,-7.31695 3.08008,-17.39453 3.08008,-17.39453c0,-9.76316 -3.96026,-14.93447 -7.96484,-17.4707c-4.00458,-2.53624 -8.03516,-2.5293 -8.03516,-2.5293zM18.9707,18c-0.13176,0.00186 -0.26186,0.02973 -0.38281,0.08203c-3.27069,0.11207 -5.92749,1.27305 -7.79297,3.07813c-1.93233,1.86975 -3.06978,4.31612 -3.55469,6.75c-0.01485,0.04745 -0.10275,0.31588 -0.1582,0.80469c-0.05085,0.44825 -0.08046,1.16709 -0.07031,2.11719c-0.00862,0.05556 -0.01254,0.11175 -0.01172,0.16797c0,7.09524 1.04665,11.30706 3.07227,16.37109c0.12187,0.34663 0.42399,0.59852 0.78688,0.65605c0.36289,0.05753 0.72811,-0.08855 0.95122,-0.38049c0.22311,-0.29193 0.26817,-0.6827 0.11736,-1.01775c-1.46359,-3.65898 -2.3634,-6.69352 -2.73242,-10.82812c0.93832,0.85532 2.09953,1.53548 3.38086,2.00195c0.09163,2.02163 0.38758,3.60775 1.39453,4.67969c1.07283,1.14207 2.7002,1.45783 4.77344,1.48828c0.07415,0.01839 0.15017,0.02822 0.22656,0.0293h0.05859c0.07377,-0.00167 0.14714,-0.01149 0.21875,-0.0293c2.07742,-0.02963 3.70694,-0.34464 4.78125,-1.48828c1.00696,-1.07194 1.3029,-2.65805 1.39453,-4.67969c1.28133,-0.46648 2.44254,-1.14663 3.38086,-2.00195c-0.36902,4.13461 -1.26883,7.16915 -2.73242,10.82813c-0.1508,0.33505 -0.10574,0.72582 0.11736,1.01775c0.22311,0.29193 0.58833,0.43802 0.95122,0.38049c0.36289,-0.05753 0.66502,-0.30942 0.78688,-0.65605c2.02561,-5.06403 3.07227,-9.27586 3.07227,-16.37109c0.00019,-0.05231 -0.00373,-0.10455 -0.01172,-0.15625c0.01064,-0.95689 -0.01923,-1.67868 -0.07031,-2.12891c-0.05545,-0.4888 -0.14335,-0.75724 -0.1582,-0.80469c-0.48491,-2.43388 -1.62236,-4.88025 -3.55469,-6.75c-1.86674,-1.80628 -4.52505,-2.96944 -7.79883,-3.08008c-0.11927,-0.05088 -0.2473,-0.07807 -0.37695,-0.08008zM19,20.00586c3.0122,0.0077 5.20949,1.0407 6.8125,2.5918c1.60899,1.55689 2.60734,3.66841 3.01367,5.7832c0.0105,0.05454 0.02553,0.10811 0.04492,0.16016c0,0 0.01213,-0.0111 0.05859,0.39844c0.04646,0.40954 0.09157,1.13831 0.05859,2.31641c-0.06503,2.31494 -1.96432,4.06221 -4.78125,4.90234c-0.41807,0.12434 -0.70734,0.5053 -0.71484,0.94141c-0.03954,2.23735 -0.37386,3.43236 -0.91992,4.01367c-0.54268,0.57771 -1.56149,0.88101 -3.57227,0.88477c-2.01077,-0.0038 -3.02958,-0.30706 -3.57227,-0.88477c-0.54607,-0.58131 -0.88038,-1.77632 -0.91992,-4.01367c-0.0075,-0.43611 -0.29677,-0.81706 -0.71484,-0.94141c-2.81693,-0.84014 -4.71622,-2.58741 -4.78125,-4.90234c-0.03298,-1.1781 0.01213,-1.90687 0.05859,-2.31641c0.04646,-0.40954 0.05859,-0.39844 0.05859,-0.39844c0.0194,-0.05205 0.03442,-0.10562 0.04492,-0.16016c0.40634,-2.11479 1.40468,-4.22632 3.01367,-5.7832c1.60301,-1.5511 3.8003,-2.5841 6.8125,-2.5918zM14.25977,25.00586c-1.01225,0.0565 -1.99719,0.45031 -2.61719,1.07031c-1.238,1.24 -0.5498,2.91405 0.9082,4.37305c1.458,1.457 3.13109,2.1472 4.37109,0.9082c1.241,-1.24 1.57519,-3.93948 0.11719,-5.39648c-0.729,-0.729 -1.76705,-1.01158 -2.7793,-0.95508zM23.74023,25.00586c-1.01213,-0.05637 -2.0508,0.22608 -2.7793,0.95508c-1.458,1.457 -1.12281,4.15548 0.11719,5.39648c1.238,1.238 2.91309,0.5488 4.37109,-0.9082c1.458,-1.459 2.1472,-3.13205 0.9082,-4.37305c-0.621,-0.6195 -1.60506,-1.01394 -2.61719,-1.07031zM19,32c-1.104,0 -2,2.4735 -2,3.5625c0,1.088 0.896,-0.19727 2,-0.19727c1.104,0 2,1.28527 2,0.19727c0,-1.089 -0.896,-3.5625 -2,-3.5625z"></path></g></g></svg>