<svg xmlns="http://www.w3.org/2000/svg" width="42" height="40" fill="none" xmlns:v="https://vecta.io/nano"><path d="M21.578.593l5.478 12.288 13.378 1.413a1 1 0 0 1 .564 1.737l-9.993 9.005 2.791 13.161c.18.847-.728 1.506-1.478 1.074l-11.653-6.723L9.012 39.27c-.75.432-1.657-.227-1.478-1.074l2.791-13.161L.332 16.03c-.643-.579-.296-1.646.564-1.737l13.378-1.413L19.752.592a1 1 0 0 1 1.826.001z" fill="url(#A)"/><defs><linearGradient id="A" x1="5.674" y1="1.767" x2="34.757" y2="40.673" gradientUnits="userSpaceOnUse"><stop stop-color="#ffda1c"/><stop offset="1" stop-color="#feb705"/></linearGradient></defs></svg>