<svg xmlns="http://www.w3.org/2000/svg" width="42" height="40" fill="none" xmlns:v="https://vecta.io/nano"><path d="M19.752.593l-5.478 12.288L.896 14.294a1 1 0 0 0-.564 1.737l9.993 9.005-2.791 13.161c-.18.847.728 1.506 1.478 1.074l11.653-6.723 11.653 6.722c.75.432 1.657-.227 1.478-1.074l-2.791-13.161 9.993-9.005c.643-.579.296-1.646-.564-1.737L27.056 12.88 21.578.592a1 1 0 0 0-1.826.001z" fill="url(#A)"/><path d="M.896 14.294l13.378-1.413L19.752.593c.176-.396.545-.593.913-.593v32.548L9.012 39.271c-.75.432-1.658-.227-1.478-1.074l2.791-13.161-9.993-9.005a1 1 0 0 1 .564-1.737z" fill="url(#B)"/><defs><linearGradient id="A" x1="35.656" y1="1.767" x2="6.573" y2="40.673" gradientUnits="userSpaceOnUse"><stop stop-color="#ffda1c"/><stop offset="1" stop-color="#feb705"/></linearGradient><radialGradient id="B" cx="0" cy="0" r="1" gradientUnits="userSpaceOnUse" gradientTransform="translate(24.29 16.0444) rotate(180) scale(23.105)"><stop stop-color="#fafafb"/><stop offset=".293" stop-color="#f6f7f8"/><stop offset=".566" stop-color="#ebecee"/><stop offset=".832" stop-color="#d8dcdf"/><stop offset="1" stop-color="#c8cdd1"/></radialGradient></defs></svg>