<svg width="42" height="40" viewBox="0 0 42 40" fill="none" xmlns="http://www.w3.org/2000/svg">
<path d="M19.7523 0.593375L14.2743 12.8814L0.896263 14.2944C0.0352635 14.3854 -0.310735 15.4524 0.332264 16.0314L10.3253 25.0364L7.53426 38.1974C7.35426 39.0444 8.26226 39.7034 9.01226 39.2714L20.6653 32.5484L32.3182 39.2704C33.0682 39.7024 33.9752 39.0434 33.7962 38.1964L31.0052 25.0354L40.9982 16.0304C41.6412 15.4514 41.2942 14.3844 40.4342 14.2934L27.0562 12.8804L21.5783 0.592375C21.2263 -0.197625 20.1043 -0.197625 19.7523 0.593375Z" fill="url(#paint0_linear_274_256)"/>
<path d="M0.896051 14.2944L14.274 12.8814L19.752 0.593366C19.928 0.197366 20.297 0.000366211 20.665 0.000366211V32.5483L9.01205 39.2713C8.26205 39.7033 7.35405 39.0443 7.53405 38.1973L10.325 25.0363L0.332052 16.0314C-0.310947 15.4524 0.0350516 14.3854 0.896051 14.2944Z" fill="url(#paint1_radial_274_256)"/>
<defs>
<linearGradient id="paint0_linear_274_256" x1="35.6562" y1="1.76737" x2="6.57326" y2="40.6733" gradientUnits="userSpaceOnUse">
<stop stop-color="#FFDA1C"/>
<stop offset="1" stop-color="#FEB705"/>
</linearGradient>
<radialGradient id="paint1_radial_274_256" cx="0" cy="0" r="1" gradientUnits="userSpaceOnUse" gradientTransform="translate(24.29 16.0444) rotate(180) scale(23.105)">
<stop stop-color="#FAFAFB"/>
<stop offset="0.293" stop-color="#F6F7F8"/>
<stop offset="0.566" stop-color="#EBECEE"/>
<stop offset="0.832" stop-color="#D8DCDF"/>
<stop offset="1" stop-color="#C8CDD1"/>
</radialGradient>
</defs>
</svg>
