<svg xmlns="http://www.w3.org/2000/svg" width="48" height="48" fill="none" xmlns:v="https://vecta.io/nano"><g fill="#ffb74d"><path d="M24 16a6.02 6.02 0 0 1-6-6 6.02 6.02 0 0 1 6-6 6.02 6.02 0 0 1 6 6 6.02 6.02 0 0 1-6 6zm11 12c-.5 0-1-.2-1.4-.6l-5.7-5.7c-.5-.2-2-.7-3.9-.7s-3.3.5-3.9.7l-5.7 5.7a1.93 1.93 0 0 1-2.8 0 1.93 1.93 0 0 1 0-2.8l6-6c.2-.2.3-.3.5-.4S20.6 17 24 17s5.6 1.1 5.9 1.2c.2.1.4.2.5.4l6 6a1.93 1.93 0 0 1 0 2.8c-.4.4-.9.6-1.4.6z"/><path d="M18 20H30V32H18V20Z"/><path d="M19.5 43.1c-.7 0-1.5-.3-2-.9l-4-4.1c-.7-.9-.7-2.3 0-3.2 0 0 .4-1.9 3.4-3.9 1.9-1.2 4-3.3 5.1-2.4s1.8 3.4.9 4.4l-4.3 3.5 2.7 2.5c.9 1.1.7 2.6-.4 3.5-.3.4-.8.6-1.4.6zm9-.1c.7 0 1.5-.3 2-.9l4-4c.7-.9.7-2.3 0-3.2 0 0-.4-1.9-3.4-3.9s-4-3.3-5.1-2.4-1.8 3.4-.9 4.4l4.3 3.5-2.7 2.4c-.9 1.1-.7 2.7.4 3.5.3.4.8.6 1.4.6z"/></g><path d="M30 27H18s-1 2-1 4c2 0 4 3 4 3s0 1 3 1 3-1 3-1 2-3 4-3c0-2-1-4-1-4z" fill="#2196f3"/><path d="M30.4 28H28a.94.94 0 0 0-1 1 .94.94 0 0 0 1 1h2.9c-.1-.8-.3-1.5-.5-2zm-12.8 0H20a.94.94 0 0 1 1 1 .94.94 0 0 1-1 1h-2.9c.1-.8.3-1.5.5-2z" fill="#1565c0"/></svg>