<svg xmlns="http://www.w3.org/2000/svg" width="48" height="48" fill="none" xmlns:v="https://vecta.io/nano"><path d="M36 5H12V17H36V5Z" fill="#abbdc6"/><path d="M36 5c-3.833 0-8.585 2.755-8.974 10.026-.029.541-.458.974-1 .974h-4.052c-.542 0-.971-.432-1-.974C20.585 7.755 15.833 5 12 5c-3.87 0-7 3.13-7 7 0 3.18 2.11 5.85 5 6.71a6.91 6.91 0 0 0 2 .29 6.91 6.91 0 0 0 2-.29v14.8c0 .89.58 1.66 1.43 1.92l2.57.77 5 1.5.59.18a.98.98 0 0 1 .6.51l.63 1.25a1.14 1.14 0 0 0 .18.25c.1.11.23.2.38.25L30 41.8l1.32.48A2 2 0 0 0 34 40.403V18.706A6.99 6.99 0 0 0 36 19a7 7 0 1 0 0-14z" fill="url(#A)"/><path d="M23 23.5v14.2l-5-1.5V23.5a2.5 2.5 0 1 1 5 0zm7 0v18.3l-4.62-1.66c-.15-.05-.28-.14-.38-.25V23.5a2.5 2.5 0 1 1 5 0z" fill="#abbdc6"/><path d="M14 13v5.71a6.91 6.91 0 0 1-2 .29 6.91 6.91 0 0 1-2-.29V13c0-1.1.9-2 2-2s2 .9 2 2z" fill="url(#B)"/><path d="M34 13v5.71a6.91 6.91 0 0 0 2 .29 6.91 6.91 0 0 0 2-.29V13c0-1.1-.9-2-2-2s-2 .9-2 2z" fill="url(#C)"/><defs><linearGradient id="A" x1="24" y1=".478" x2="24" y2="46.896" gradientUnits="userSpaceOnUse"><stop stop-color="#dfe9f2"/><stop offset=".391" stop-color="#d6e0e9"/><stop offset="1" stop-color="#bfc8d1"/></linearGradient><radialGradient id="B" cx="0" cy="0" r="1" gradientUnits="userSpaceOnUse" gradientTransform="translate(14.391 13.587) scale(4.676)"><stop stop-color="#abbdc6"/><stop offset="1" stop-color="#abbdc6" stop-opacity="0"/></radialGradient><radialGradient id="C" cx="0" cy="0" r="1" gradientUnits="userSpaceOnUse" gradientTransform="translate(33.609 13.587) scale(4.676)"><stop stop-color="#abbdc6"/><stop offset="1" stop-color="#abbdc6" stop-opacity="0"/></radialGradient></defs></svg>