<svg xmlns="http://www.w3.org/2000/svg" xmlns:xlink="http://www.w3.org/1999/xlink" width="48" height="48" fill="none" xmlns:v="https://vecta.io/nano"><path d="M12 20a5 5 0 1 0 0-10 5 5 0 1 0 0 10z" fill="url(#A)"/><path d="M12 22a9 9 0 0 0-9 9v9a2 2 0 0 0 2 2h14a2 2 0 0 0 2-2v-9a9 9 0 0 0-9-9z" fill="url(#B)"/><path d="M36 20a5 5 0 1 0 0-10 5 5 0 1 0 0 10z" fill="url(#C)"/><path d="M36 22a9 9 0 0 0-9 9v9a2 2 0 0 0 2 2h14a2 2 0 0 0 2-2v-9a9 9 0 0 0-9-9z" fill="url(#D)"/><path d="M24 16a5 5 0 1 0 0-10 5 5 0 1 0 0 10z" fill="url(#E)"/><g fill="#000"><path opacity=".05" d="M35 40V27c0-1.701-.399-3.307-1.092-4.746C29.948 23.199 27 26.751 27 31v9a2 2 0 0 0 2 2h5.444c.344-.591.556-1.268.556-2z"/><path opacity=".067" d="M34.333 40V27c0-1.621-.385-3.15-1.053-4.517C29.649 23.602 27 26.987 27 31v9a2 2 0 0 0 2 2h4.296c.598-.394 1.037-1.144 1.037-2z"/><path opacity=".09" d="M33.667 40V27c0-1.542-.371-2.994-1.014-4.288A8.9 8.9 0 0 0 27 31v9a2 2 0 0 0 2 2h3.148c.851-.197 1.519-1.02 1.519-2z"/><path opacity=".05" d="M13 40V27c0-1.701.399-3.307 1.092-4.746C18.052 23.199 21 26.751 21 31v9a2 2 0 0 1-2 2h-5.444c-.344-.591-.556-1.268-.556-2z"/><path opacity=".067" d="M13.667 40V27c0-1.621.385-3.15 1.053-4.517C18.351 23.602 21 26.987 21 31v9a2 2 0 0 1-2 2h-4.296c-.598-.394-1.037-1.144-1.037-2z"/><path opacity=".09" d="M14.333 40V27c0-1.542.371-2.994 1.014-4.288A8.9 8.9 0 0 1 21 31v9a2 2 0 0 1-2 2h-3.148c-.851-.197-1.519-1.02-1.519-2z"/></g><path d="M24 18a9 9 0 0 0-9 9v13a2 2 0 0 0 2 2h14a2 2 0 0 0 2-2V27a9 9 0 0 0-9-9z" fill="url(#F)"/><defs><linearGradient id="A" x1="8.608" y1="11.608" x2="15.584" y2="18.584" xlink:href="#G"><stop stop-color="#199ae0"/><stop offset="1" stop-color="#0782d8"/></linearGradient><linearGradient id="B" x1="4.431" y1="26.482" x2="19.998" y2="42.048" xlink:href="#G"><stop stop-color="#199ae0"/><stop offset="1" stop-color="#0782d8"/></linearGradient><linearGradient id="C" x1="32.608" y1="11.608" x2="39.584" y2="18.584" xlink:href="#G"><stop stop-color="#0d61a9"/><stop offset="1" stop-color="#16528c"/></linearGradient><linearGradient id="D" x1="28.431" y1="26.482" x2="43.998" y2="42.048" xlink:href="#G"><stop stop-color="#0d61a9"/><stop offset="1" stop-color="#16528c"/></linearGradient><linearGradient id="E" x1="20.608" y1="7.608" x2="27.584" y2="14.584" xlink:href="#G"><stop stop-color="#32bdef"/><stop offset="1" stop-color="#1ea2e4"/></linearGradient><linearGradient id="F" x1="21.181" y1="19.057" x2="26.202" y2="44.16" xlink:href="#G"><stop stop-color="#32bdef"/><stop offset="1" stop-color="#1ea2e4"/></linearGradient><linearGradient id="G" gradientUnits="userSpaceOnUse"/></defs></svg>