<svg width="48" height="48" viewBox="0 0 48 48" fill="none" xmlns="http://www.w3.org/2000/svg">
<path d="M12 20C14.7614 20 17 17.7614 17 15C17 12.2386 14.7614 10 12 10C9.23857 10 7 12.2386 7 15C7 17.7614 9.23857 20 12 20Z" fill="url(#paint0_linear_209_236)"/>
<path d="M12 22C7.029 22 3 26.029 3 31V40C3 41.105 3.895 42 5 42H19C20.105 42 21 41.105 21 40V31C21 26.029 16.971 22 12 22Z" fill="url(#paint1_linear_209_236)"/>
<path d="M36 20C38.7614 20 41 17.7614 41 15C41 12.2386 38.7614 10 36 10C33.2386 10 31 12.2386 31 15C31 17.7614 33.2386 20 36 20Z" fill="url(#paint2_linear_209_236)"/>
<path d="M36 22C31.029 22 27 26.029 27 31V40C27 41.105 27.895 42 29 42H43C44.105 42 45 41.105 45 40V31C45 26.029 40.971 22 36 22Z" fill="url(#paint3_linear_209_236)"/>
<path d="M24 16C26.7614 16 29 13.7614 29 11C29 8.23857 26.7614 6 24 6C21.2386 6 19 8.23857 19 11C19 13.7614 21.2386 16 24 16Z" fill="url(#paint4_linear_209_236)"/>
<path opacity="0.05" d="M35 39.9999V26.9999C35 25.2989 34.601 23.6929 33.908 22.2539C29.948 23.1989 27 26.7509 27 30.9999V39.9999C27 41.1049 27.895 41.9999 29 41.9999H34.444C34.788 41.4089 35 40.7319 35 39.9999Z" fill="black"/>
<path opacity="0.067" d="M34.333 39.9999V26.9999C34.333 25.3789 33.948 23.8499 33.28 22.4829C29.649 23.6019 27 26.9869 27 30.9999V39.9999C27 41.1049 27.895 41.9999 29 41.9999H33.296C33.894 41.6059 34.333 40.8559 34.333 39.9999Z" fill="black"/>
<path opacity="0.09" d="M33.667 39.9999V26.9999C33.667 25.4579 33.296 24.0059 32.653 22.7119C29.35 24.0049 27 27.2229 27 30.9999V39.9999C27 41.1049 27.895 41.9999 29 41.9999H32.148C32.999 41.8029 33.667 40.9799 33.667 39.9999Z" fill="black"/>
<path opacity="0.05" d="M13 39.9999V26.9999C13 25.2989 13.399 23.6929 14.092 22.2539C18.052 23.1989 21 26.7509 21 30.9999V39.9999C21 41.1049 20.105 41.9999 19 41.9999H13.556C13.212 41.4089 13 40.7319 13 39.9999Z" fill="black"/>
<path opacity="0.067" d="M13.667 39.9999V26.9999C13.667 25.3789 14.052 23.8499 14.72 22.4829C18.351 23.6019 21 26.9869 21 30.9999V39.9999C21 41.1049 20.105 41.9999 19 41.9999H14.704C14.106 41.6059 13.667 40.8559 13.667 39.9999Z" fill="black"/>
<path opacity="0.09" d="M14.333 39.9999V26.9999C14.333 25.4579 14.704 24.0059 15.347 22.7119C18.65 24.0049 21 27.2229 21 30.9999V39.9999C21 41.1049 20.105 41.9999 19 41.9999H15.852C15.001 41.8029 14.333 40.9799 14.333 39.9999Z" fill="black"/>
<path d="M24 18C19.029 18 15 22.029 15 27V40C15 41.105 15.895 42 17 42H31C32.105 42 33 41.105 33 40V27C33 22.029 28.971 18 24 18Z" fill="url(#paint5_linear_209_236)"/>
<defs>
<linearGradient id="paint0_linear_209_236" x1="8.608" y1="11.608" x2="15.584" y2="18.584" gradientUnits="userSpaceOnUse">
<stop stop-color="#199AE0"/>
<stop offset="1" stop-color="#0782D8"/>
</linearGradient>
<linearGradient id="paint1_linear_209_236" x1="4.431" y1="26.482" x2="19.998" y2="42.048" gradientUnits="userSpaceOnUse">
<stop stop-color="#199AE0"/>
<stop offset="1" stop-color="#0782D8"/>
</linearGradient>
<linearGradient id="paint2_linear_209_236" x1="32.608" y1="11.608" x2="39.584" y2="18.584" gradientUnits="userSpaceOnUse">
<stop stop-color="#0D61A9"/>
<stop offset="1" stop-color="#16528C"/>
</linearGradient>
<linearGradient id="paint3_linear_209_236" x1="28.431" y1="26.482" x2="43.998" y2="42.048" gradientUnits="userSpaceOnUse">
<stop stop-color="#0D61A9"/>
<stop offset="1" stop-color="#16528C"/>
</linearGradient>
<linearGradient id="paint4_linear_209_236" x1="20.608" y1="7.608" x2="27.584" y2="14.584" gradientUnits="userSpaceOnUse">
<stop stop-color="#32BDEF"/>
<stop offset="1" stop-color="#1EA2E4"/>
</linearGradient>
<linearGradient id="paint5_linear_209_236" x1="21.181" y1="19.057" x2="26.202" y2="44.16" gradientUnits="userSpaceOnUse">
<stop stop-color="#32BDEF"/>
<stop offset="1" stop-color="#1EA2E4"/>
</linearGradient>
</defs>
</svg>
