<svg width="48" height="48" viewBox="0 0 48 48" fill="none" xmlns="http://www.w3.org/2000/svg">
<path d="M35.0001 6.40409L36.0001 31.0001C36.0001 31.0001 36.0001 33.0001 35.0001 35.0001C34.0001 37.0001 27.0001 47.0001 20.0001 47.0001C18.0001 47.0001 12.0001 44.0001 12.0001 44.0001C11.6301 43.8011 10.9431 43.0001 11.0001 41.0001C11.0571 39.0011 11.0001 36.0001 11.0001 36.0001C11.0001 36.0001 9.46811 35.1601 10.4891 33.8831C9.37211 32.3511 10.8401 31.4891 10.8401 31.4891C11.8631 30.9411 12.5421 30.0731 13.0001 29.0001L9.00011 27.0001C9.00011 27.0001 8.00011 26.0001 9.00011 25.0001C10.0001 24.0001 13.0001 23.0001 15.0001 20.0001C17.0001 17.0001 17.0001 12.0001 17.0001 12.0001C17.0001 12.0001 13.4311 10.3031 14.4311 8.30309C15.4311 6.30309 17.2991 3.41409 20.1281 2.00009C22.2981 0.915095 25.0641 1.00009 29.0641 1.00009C33.0641 1.00009 35.0001 1.40409 35.0001 6.40409Z" fill="url(#paint0_linear_208_178)"/>
<path d="M12.0451 38.4152C12.0451 38.4152 14.2241 36.6282 18.5321 39.4042C21.5081 41.3222 19.2071 44.3352 17.1601 41.9572C15.7561 40.3272 14.0171 39.7552 12.5071 40.3292C10.9961 40.9042 11.0641 39.0852 12.0451 38.4152Z" fill="url(#paint1_radial_208_178)"/>
<path d="M22.8401 36.7233C22.8401 36.7233 15.7231 37.3293 10.4251 34.0103C9.85106 34.8403 10.0421 35.4783 11.2231 36.0533C12.4041 36.6283 17.7981 37.8093 22.8401 36.7233Z" fill="url(#paint2_radial_208_178)"/>
<path d="M20.7981 24.3402C21.6361 24.2682 24.2931 24.7712 23.4791 27.5472C23.1921 28.7922 24.0101 28.9272 24.5321 27.8822C25.1301 26.6862 24.5081 23.1682 20.7981 24.3402Z" fill="url(#paint3_linear_208_178)"/>
<path d="M24.4361 13.4261C24.4361 13.4261 23.8621 18.3091 23.8621 20.0321C23.8621 21.7551 27.9791 23.5751 29.0321 23.2871C30.0851 23.0001 29.8941 15.5321 28.3621 11.7021C27.0211 12.1811 24.4361 13.4261 24.4361 13.4261Z" fill="url(#paint4_radial_208_178)"/>
<path d="M18.261 15.053C18.261 15.053 17.351 22.138 9.5 25.776C12.085 26.255 14.862 27.595 14.862 27.595C14.862 27.595 18.692 26.398 20.367 15.627C20.798 13.761 18.548 13.138 18.261 15.053Z" fill="url(#paint5_radial_208_178)"/>
<path d="M29.2711 11.1279C29.2711 11.1279 28.6971 9.78795 24.4841 9.59595C20.2711 9.40495 17.0161 9.16495 16.2021 9.16495C15.3881 9.16495 13.8081 9.11695 14.5741 10.0749C15.3401 11.0319 16.9681 13.4259 16.9681 13.4259C16.9681 13.4259 17.4951 11.4629 18.9311 11.4629C20.3671 11.4629 21.8991 13.8089 23.3351 14.1439C24.7711 14.4789 28.1221 12.7079 28.8401 12.2769C29.5581 11.8459 29.2711 11.1279 29.2711 11.1279Z" fill="url(#paint6_linear_208_178)"/>
<path d="M29.0011 11.1122C29.0011 11.1122 28.4181 9.86722 24.4031 9.67422C20.1921 9.46022 17.0421 9.24522 16.2281 9.24522C15.4141 9.24522 13.9411 9.21522 14.6941 10.1592C15.4491 11.1062 16.9551 13.2492 16.9551 13.2492C16.9551 13.2492 17.4881 11.3712 18.9241 11.3712C20.3601 11.3712 21.8811 13.6452 23.3171 13.9742C24.7531 14.3022 27.9001 12.6682 28.6091 12.2292C29.3171 11.7912 29.0011 11.1122 29.0011 11.1122Z" fill="url(#paint7_linear_208_178)"/>
<path d="M28.7321 11.0972C28.7321 11.0972 28.1401 9.95818 24.3231 9.75218C20.1131 9.52518 17.0681 9.32618 16.2541 9.32618C15.4401 9.32618 14.0741 9.31318 14.8131 10.2442C15.5571 11.1812 16.9411 13.0732 16.9411 13.0732C16.9411 13.0732 17.4811 11.2802 18.9171 11.2802C20.3531 11.2802 21.8631 13.4832 23.2991 13.8042C24.7351 14.1252 27.6771 12.6292 28.3781 12.1812C29.0761 11.7352 28.7321 11.0972 28.7321 11.0972Z" fill="url(#paint8_linear_208_178)"/>
<path d="M28.4622 11.0822C28.4622 11.0822 27.8612 10.0422 24.2432 9.83123C20.0352 9.58623 17.0952 9.40723 16.2812 9.40723C15.4672 9.40723 14.2072 9.41123 14.9342 10.3302C15.6672 11.2562 16.9292 12.8982 16.9292 12.8982C16.9292 12.8982 17.4752 11.1902 18.9112 11.1902C20.3472 11.1902 21.8462 13.3222 23.2832 13.6362C24.7192 13.9502 27.4572 12.5922 28.1492 12.1352C28.8352 11.6802 28.4622 11.0822 28.4622 11.0822Z" fill="url(#paint9_linear_208_178)"/>
<path d="M28.1922 11.0673C28.1922 11.0673 27.5822 10.1253 24.1622 9.9093C19.9562 9.6443 17.1202 9.4873 16.3072 9.4873C15.4932 9.4873 14.3402 9.5093 15.0542 10.4143C15.7762 11.3303 16.9172 12.7213 16.9172 12.7213C16.9172 12.7213 17.4702 11.0983 18.9062 11.0983C20.3422 11.0983 21.8312 13.1593 23.2672 13.4663C24.7032 13.7733 27.2362 12.5523 27.9192 12.0863C28.5942 11.6253 28.1922 11.0673 28.1922 11.0673Z" fill="url(#paint10_linear_208_178)"/>
<path d="M27.9221 11.0509C27.9221 11.0509 27.3031 10.2049 24.0811 9.98689C19.8761 9.70189 17.1461 9.56689 16.3321 9.56689C15.5181 9.56689 14.4721 9.60589 15.1721 10.4979C15.8831 11.4039 16.9021 12.5429 16.9021 12.5429C16.9021 12.5429 17.4611 11.0049 18.8971 11.0049C20.3331 11.0049 21.8111 12.9939 23.2471 13.2939C24.6831 13.5939 27.0121 12.5109 27.6861 12.0359C28.3531 11.5699 27.9221 11.0509 27.9221 11.0509Z" fill="url(#paint11_linear_208_178)"/>
<path d="M27.652 11.036C27.652 11.036 27.024 10.286 24.001 10.065C19.798 9.75797 17.173 9.64697 16.359 9.64697C15.545 9.64697 14.605 9.70397 15.293 10.583C15.993 11.478 16.89 12.367 16.89 12.367C16.89 12.367 17.456 10.913 18.892 10.913C20.328 10.913 21.795 12.831 23.231 13.124C24.667 13.417 26.791 12.471 27.457 11.988C28.112 11.515 27.652 11.036 27.652 11.036Z" fill="url(#paint12_linear_208_178)"/>
<path d="M27.382 11.021C27.382 11.021 26.745 10.366 23.92 10.144C19.719 9.81403 17.198 9.72803 16.384 9.72803C15.57 9.72803 14.737 9.80203 15.411 10.668C16.1 11.553 16.875 12.191 16.875 12.191C16.875 12.191 17.447 10.822 18.883 10.822C20.319 10.822 21.775 12.669 23.211 12.954C24.647 13.24 26.566 12.432 27.224 11.94C27.871 11.46 27.382 11.021 27.382 11.021Z" fill="url(#paint13_linear_208_178)"/>
<path d="M27.113 11.0061C27.113 11.0061 26.468 10.4441 23.84 10.2231C19.641 9.86906 17.225 9.81006 16.411 9.81006C15.597 9.81006 14.87 9.90106 15.532 10.7541C16.21 11.6281 16.864 12.0161 16.864 12.0161C16.864 12.0161 17.443 10.7321 18.879 10.7321C20.315 10.7321 21.76 12.5081 23.196 12.7861C24.632 13.0641 26.347 12.3941 26.995 11.8941C27.63 11.4051 27.113 11.0061 27.113 11.0061Z" fill="url(#paint14_linear_208_178)"/>
<path d="M26.8431 10.9911C26.8431 10.9911 26.1891 10.5221 23.7601 10.3011C19.5631 9.92014 17.2521 9.89014 16.4381 9.89014C15.6241 9.89014 15.0041 9.99914 15.6521 10.8391C16.3191 11.7031 16.8511 11.8401 16.8511 11.8401C16.8511 11.8401 17.4361 10.6411 18.8731 10.6411C20.3101 10.6411 21.7431 12.3451 23.1791 12.6171C24.6151 12.8881 26.1251 12.3561 26.7651 11.8471C27.3891 11.3501 26.8431 10.9911 26.8431 10.9911Z" fill="url(#paint15_linear_208_178)"/>
<path d="M26.5732 10.9752C26.5732 10.9752 25.9112 10.5972 23.6792 10.3792C19.4842 9.96821 17.2772 9.97022 16.4632 9.97022C15.6492 9.97022 15.1362 10.0962 15.7712 10.9232C16.4272 11.7772 16.8372 11.6632 16.8372 11.6632C16.8372 11.6632 17.4292 10.5492 18.8652 10.5492C20.3012 10.5492 21.7242 12.1822 23.1602 12.4462C24.5962 12.7102 25.9022 12.3152 26.5332 11.7982C27.1482 11.2942 26.5732 10.9752 26.5732 10.9752Z" fill="url(#paint16_linear_208_178)"/>
<path d="M26.3031 10.9601C26.3031 10.9601 25.6331 10.6731 23.5981 10.4571C19.4061 10.0131 17.3031 10.0501 16.4891 10.0501C15.6751 10.0501 15.2681 10.1941 15.8911 11.0071C16.5361 11.8501 16.8251 11.4861 16.8251 11.4861C16.8251 11.4861 17.4231 10.4571 18.8601 10.4571C20.2971 10.4571 21.7081 12.0191 23.1451 12.2761C24.5811 12.5331 25.6821 12.2761 26.3051 11.7491C26.9071 11.2391 26.3031 10.9601 26.3031 10.9601Z" fill="#323232"/>
<path d="M20.319 31.1699C14.534 32.8569 12.87 30.9019 12.428 30.0239C12.019 30.6239 11.509 31.1299 10.84 31.4889C10.84 31.4889 9.80302 32.1029 10.144 33.2129C11.776 35.1799 15.707 35.5199 19.425 35.6379C23.446 35.7659 25.612 34.6339 26.957 32.7659C28.106 31.1699 26.447 29.3829 20.319 31.1699Z" fill="url(#paint17_radial_208_178)"/>
<path d="M12.883 34.3302C11.352 33.8962 10.451 33.1042 10.111 32.4482C10.015 32.8252 10.069 33.3062 10.489 33.8832C10.461 33.9182 10.442 33.9512 10.418 33.9852C10.967 34.6052 11.796 35.1862 12.946 35.5432C19.121 37.0752 23.861 35.3522 23.861 35.3522C18.436 35.7662 15.133 34.9682 12.883 34.3302Z" fill="url(#paint18_linear_208_178)"/>
<path d="M13.1142 28.793C13.1142 28.793 12.7472 29.558 12.4282 30.025C12.5162 30.732 12.9232 31.067 14.0962 31.45C15.2692 31.833 19.0032 32.743 22.8812 29.176C22.0902 29.104 13.1142 28.793 13.1142 28.793Z" fill="url(#paint19_linear_208_178)"/>
<path d="M25.9362 1.80786C24.1512 1.80786 22.2242 1.65686 19.9762 2.08786C17.7082 3.28086 16.0762 5.40286 15.0232 7.21686C15.5142 7.01986 16.9292 6.52686 18.2762 6.78686C19.9362 7.10586 22.9992 9.14885 26.1272 7.68086C29.2552 6.21286 28.6812 1.80786 25.9362 1.80786Z" fill="url(#paint20_radial_208_178)"/>
<path d="M11.1021 42.3773C11.2981 43.3863 11.7321 43.8553 12.0001 44.0003C12.0001 44.0003 18 47.0003 20 47.0003C27 47.0003 34 37.0003 35 35.0003C36 33.0003 36 31.0003 36 31.0003L35.765 25.2163C36.069 34.5373 25.423 43.7913 23 45.0693C20.367 46.4573 16.25 43.9843 14.479 43.2663C13.116 42.7133 11.7361 42.8383 11.1021 42.3773Z" fill="url(#paint21_linear_208_178)"/>
<path d="M20.6541 14.9102C20.6541 14.9102 19.2661 22.6652 16.8241 25.8252C15.2441 27.7882 13.5691 27.1652 13.5691 27.1652C13.5691 27.1652 14.0001 28.3142 17.7821 28.4582C21.1811 25.9692 21.8031 15.1492 21.8031 15.1492C21.9151 13.8092 20.8941 13.9202 20.6541 14.9102Z" fill="url(#paint22_linear_208_178)"/>
<path d="M22.5212 28.7931C23.3112 28.6491 22.9042 29.4871 22.0422 29.6551C22.0422 29.6551 16.5472 30.6441 12.9992 29.0011C9.4512 27.3581 9.3132 27.3631 8.9992 27.0011C8.6852 26.6391 11.3182 25.9211 13.9032 27.1661C16.4882 28.4111 20.5112 29.0321 22.5212 28.7931Z" fill="url(#paint23_linear_208_178)"/>
<path d="M21.434 34.923C21.434 34.923 27.722 34.507 29.665 30.347C28.241 30.528 26.042 30.814 24.547 29.987C23.052 29.16 17.099 35.803 21.434 34.923Z" fill="url(#paint24_radial_208_178)"/>
<path d="M31.2021 16.9359C31.2021 16.9359 30.9321 22.8409 31.2101 24.5079C31.4251 25.8009 32.0481 24.1969 32.0001 23.4309C32.0001 23.4309 31.6491 17.8939 31.6491 16.9999C31.6491 16.1059 31.2341 16.6489 31.2021 16.9359Z" fill="url(#paint25_radial_208_178)"/>
<path d="M33.0532 11.4473C33.0532 11.4473 34.7762 23.0003 34.3302 24.4043C33.8842 25.8083 32.6072 25.3613 31.9042 25.2343C31.2022 25.1063 31.0102 25.5533 31.7762 26.2553C32.5422 26.9573 34.9362 27.5643 35.5102 25.9043C36.0852 24.2453 34.7772 15.8513 33.0532 11.4473Z" fill="url(#paint26_linear_208_178)"/>
<defs>
<linearGradient id="paint0_linear_208_178" x1="11.2711" y1="17.4241" x2="36.3791" y2="29.3581" gradientUnits="userSpaceOnUse">
<stop offset="0.001" stop-color="#979595"/>
<stop offset="0.166" stop-color="#878686"/>
<stop offset="0.421" stop-color="#757575"/>
<stop offset="0.692" stop-color="#6A6A6A"/>
<stop offset="1" stop-color="#676767"/>
</linearGradient>
<radialGradient id="paint1_radial_208_178" cx="0" cy="0" r="1" gradientUnits="userSpaceOnUse" gradientTransform="translate(15.3269 38.5821) scale(7.21106 7.21107)">
<stop offset="0.001" stop-color="#979595"/>
<stop offset="0.939" stop-color="#6F6F6F"/>
<stop offset="1" stop-color="#6C6C6C"/>
</radialGradient>
<radialGradient id="paint2_radial_208_178" cx="0" cy="0" r="1" gradientUnits="userSpaceOnUse" gradientTransform="translate(13.4131 35.2693) scale(8.599 8.599)">
<stop offset="0.001" stop-color="#979595"/>
<stop offset="0.847" stop-color="#6F6E6E"/>
<stop offset="1" stop-color="#676767"/>
</radialGradient>
<linearGradient id="paint3_linear_208_178" x1="20.7981" y1="26.3442" x2="27.3851" y2="26.3442" gradientUnits="userSpaceOnUse">
<stop stop-color="#676767"/>
<stop offset="0.335" stop-color="#646464"/>
<stop offset="0.628" stop-color="#595959"/>
<stop offset="0.905" stop-color="#474747"/>
<stop offset="0.999" stop-color="#3F3F3F"/>
</linearGradient>
<radialGradient id="paint4_radial_208_178" cx="0" cy="0" r="1" gradientUnits="userSpaceOnUse" gradientTransform="translate(26.2991 15.5945) scale(5.846)">
<stop offset="0.001" stop-color="#979595"/>
<stop offset="0.573" stop-color="#797878"/>
<stop offset="1" stop-color="#676767"/>
</radialGradient>
<radialGradient id="paint5_radial_208_178" cx="0" cy="0" r="1" gradientUnits="userSpaceOnUse" gradientTransform="translate(21.845 24.73) scale(10.035)">
<stop stop-color="white" stop-opacity="0.7"/>
<stop offset="1" stop-color="white" stop-opacity="0"/>
</radialGradient>
<linearGradient id="paint6_linear_208_178" x1="16.8961" y1="6.33995" x2="38.3931" y2="26.7259" gradientUnits="userSpaceOnUse">
<stop offset="0.001" stop-color="#979595"/>
<stop offset="0.166" stop-color="#878686"/>
<stop offset="0.421" stop-color="#757575"/>
<stop offset="0.692" stop-color="#6A6A6A"/>
<stop offset="1" stop-color="#676767"/>
</linearGradient>
<linearGradient id="paint7_linear_208_178" x1="16.9791" y1="6.46523" x2="37.887" y2="26.2922" gradientUnits="userSpaceOnUse">
<stop offset="0.001" stop-color="#8E8C8C"/>
<stop offset="0.133" stop-color="#828181"/>
<stop offset="0.398" stop-color="#707070"/>
<stop offset="0.679" stop-color="#656565"/>
<stop offset="1" stop-color="#626262"/>
</linearGradient>
<linearGradient id="paint8_linear_208_178" x1="17.0611" y1="6.59018" x2="37.3821" y2="25.8602" gradientUnits="userSpaceOnUse">
<stop offset="0.001" stop-color="#858383"/>
<stop offset="0.095" stop-color="#7D7B7B"/>
<stop offset="0.372" stop-color="#6B6A6A"/>
<stop offset="0.665" stop-color="#606060"/>
<stop offset="1" stop-color="#5D5D5D"/>
</linearGradient>
<linearGradient id="paint9_linear_208_178" x1="17.1432" y1="6.71223" x2="36.8802" y2="25.4292" gradientUnits="userSpaceOnUse">
<stop offset="0.001" stop-color="#7B7A7A"/>
<stop offset="0.027" stop-color="#797878"/>
<stop offset="0.325" stop-color="#676767"/>
<stop offset="0.64" stop-color="#5C5C5C"/>
<stop offset="1" stop-color="#595959"/>
</linearGradient>
<linearGradient id="paint10_linear_208_178" x1="17.2242" y1="6.83331" x2="36.3802" y2="24.9983" gradientUnits="userSpaceOnUse">
<stop offset="0.001" stop-color="#727171"/>
<stop offset="0.286" stop-color="#626262"/>
<stop offset="0.619" stop-color="#575757"/>
<stop offset="1" stop-color="#545454"/>
</linearGradient>
<linearGradient id="paint11_linear_208_178" x1="17.3061" y1="6.9519" x2="35.8821" y2="24.5679" gradientUnits="userSpaceOnUse">
<stop offset="0.001" stop-color="#696868"/>
<stop offset="0.239" stop-color="#5D5D5D"/>
<stop offset="0.594" stop-color="#525252"/>
<stop offset="1" stop-color="#4F4F4F"/>
</linearGradient>
<linearGradient id="paint12_linear_208_178" x1="17.386" y1="7.06898" x2="35.387" y2="24.139" gradientUnits="userSpaceOnUse">
<stop offset="0.001" stop-color="#605F5F"/>
<stop offset="0.18" stop-color="#585858"/>
<stop offset="0.563" stop-color="#4D4D4D"/>
<stop offset="1" stop-color="#4A4A4A"/>
</linearGradient>
<linearGradient id="paint13_linear_208_178" x1="17.461" y1="7.18903" x2="34.889" y2="23.717" gradientUnits="userSpaceOnUse">
<stop offset="0.001" stop-color="#575656"/>
<stop offset="0.103" stop-color="#535252"/>
<stop offset="0.522" stop-color="#484848"/>
<stop offset="1" stop-color="#454545"/>
</linearGradient>
<linearGradient id="paint14_linear_208_178" x1="17.519" y1="7.32406" x2="34.38" y2="23.3131" gradientUnits="userSpaceOnUse">
<stop offset="0.001" stop-color="#4E4D4D"/>
<stop offset="0.465" stop-color="#434343"/>
<stop offset="1" stop-color="#404040"/>
</linearGradient>
<linearGradient id="paint15_linear_208_178" x1="17.5711" y1="7.46214" x2="33.8671" y2="22.9161" gradientUnits="userSpaceOnUse">
<stop offset="0.001" stop-color="#444444"/>
<stop offset="0.313" stop-color="#3F3F3F"/>
<stop offset="1" stop-color="#3C3C3C"/>
</linearGradient>
<linearGradient id="paint16_linear_208_178" x1="17.6192" y1="7.60022" x2="33.3562" y2="22.5252" gradientUnits="userSpaceOnUse">
<stop offset="0.001" stop-color="#3B3B3B"/>
<stop offset="0.063" stop-color="#3A3A3A"/>
<stop offset="1" stop-color="#373737"/>
</linearGradient>
<radialGradient id="paint17_radial_208_178" cx="0" cy="0" r="1" gradientUnits="userSpaceOnUse" gradientTransform="translate(13.543 34.8519) scale(8.25899 8.259)">
<stop offset="0.001" stop-color="#979595"/>
<stop offset="0.919" stop-color="#6F6F6F"/>
<stop offset="1" stop-color="#6B6B6B"/>
</radialGradient>
<linearGradient id="paint18_linear_208_178" x1="10.07" y1="34.3132" x2="23.862" y2="34.3132" gradientUnits="userSpaceOnUse">
<stop stop-color="#676767"/>
<stop offset="0.434" stop-color="#505050"/>
<stop offset="0.999" stop-color="#2D2D2D"/>
</linearGradient>
<linearGradient id="paint19_linear_208_178" x1="11.1202" y1="30.317" x2="21.5722" y2="30.317" gradientUnits="userSpaceOnUse">
<stop stop-color="#888787"/>
<stop offset="0.35" stop-color="#727171"/>
<stop offset="1" stop-color="#3F3F3F"/>
</linearGradient>
<radialGradient id="paint20_radial_208_178" cx="0" cy="0" r="1" gradientUnits="userSpaceOnUse" gradientTransform="translate(22.9742 2.98433) scale(8.358)">
<stop stop-color="#BCBCBC"/>
<stop offset="1" stop-color="white" stop-opacity="0"/>
</radialGradient>
<linearGradient id="paint21_linear_208_178" x1="22.824" y1="33.2863" x2="33.113" y2="46.8763" gradientUnits="userSpaceOnUse">
<stop stop-color="#676767"/>
<stop offset="0.434" stop-color="#505050"/>
<stop offset="0.999" stop-color="#2D2D2D"/>
</linearGradient>
<linearGradient id="paint22_linear_208_178" x1="16.2601" y1="19.1392" x2="21.6871" y2="25.6482" gradientUnits="userSpaceOnUse">
<stop stop-color="#676767"/>
<stop offset="0.335" stop-color="#646464"/>
<stop offset="0.628" stop-color="#595959"/>
<stop offset="0.905" stop-color="#474747"/>
<stop offset="0.999" stop-color="#3F3F3F"/>
</linearGradient>
<linearGradient id="paint23_linear_208_178" x1="7.4252" y1="24.7501" x2="20.4122" y2="29.8951" gradientUnits="userSpaceOnUse">
<stop stop-color="#676767"/>
<stop offset="0.434" stop-color="#505050"/>
<stop offset="0.999" stop-color="#2D2D2D"/>
</linearGradient>
<radialGradient id="paint24_radial_208_178" cx="0" cy="0" r="1" gradientUnits="userSpaceOnUse" gradientTransform="translate(24.9647 34.1429) scale(5.416)">
<stop stop-color="white" stop-opacity="0.2"/>
<stop offset="1" stop-color="white" stop-opacity="0"/>
</radialGradient>
<radialGradient id="paint25_radial_208_178" cx="0" cy="0" r="1" gradientUnits="userSpaceOnUse" gradientTransform="translate(26.8501 19.6066) scale(5.938 5.938)">
<stop offset="0.001" stop-color="#979595"/>
<stop offset="0.939" stop-color="#6F6F6F"/>
<stop offset="1" stop-color="#6C6C6C"/>
</radialGradient>
<linearGradient id="paint26_linear_208_178" x1="31.1882" y1="5.53227" x2="34.7892" y2="35.5293" gradientUnits="userSpaceOnUse">
<stop stop-color="#6C6C6C"/>
<stop offset="0.536" stop-color="#565656"/>
<stop offset="1" stop-color="#3F3F3F"/>
</linearGradient>
</defs>
</svg>
