<svg xmlns="http://www.w3.org/2000/svg" xmlns:xlink="http://www.w3.org/1999/xlink" width="48" height="48" fill="none" xmlns:v="https://vecta.io/nano"><path d="M35 6.404L36 31s0 2-1 4-8 12-15 12c-2 0-8-3-8-3-.37-.199-1.057-1-1-3s0-5 0-5-1.532-.84-.511-2.117c-1.117-1.532.351-2.394.351-2.394 1.023-.548 1.702-1.416 2.16-2.489l-4-2s-1-1 0-2 4-2 6-5 2-8 2-8-3.569-1.697-2.569-3.697S17.299 3.414 20.128 2c2.17-1.085 4.936-1 8.936-1S35 1.404 35 6.404z" fill="url(#A)"/><path d="M12.045 38.415s2.179-1.787 6.487.989c2.976 1.918.675 4.931-1.372 2.553-1.404-1.63-3.143-2.202-4.653-1.628s-1.443-1.244-.462-1.914z" fill="url(#B)"/><path d="M22.84 36.723s-7.117.606-12.415-2.713c-.574.83-.383 1.468.798 2.043s6.575 1.756 11.617.67z" fill="url(#C)"/><path d="M20.798 24.34c.838-.072 3.495.431 2.681 3.207-.287 1.245.531 1.38 1.053.335.598-1.196-.024-4.714-3.734-3.542z" fill="url(#D)"/><path d="M24.436 13.426l-.574 6.606c0 1.723 4.117 3.543 5.17 3.255s.862-7.755-.67-11.585c-1.341.479-3.926 1.724-3.926 1.724z" fill="url(#E)"/><path d="M18.261 15.053s-.91 7.085-8.761 10.723c2.585.479 5.362 1.819 5.362 1.819s3.83-1.197 5.505-11.968c.431-1.866-1.819-2.489-2.106-.574z" fill="url(#F)"/><path d="M29.271 11.128s-.574-1.34-4.787-1.532l-8.282-.431c-.814 0-2.394-.048-1.628.91s2.394 3.351 2.394 3.351.527-1.963 1.963-1.963 2.968 2.346 4.404 2.681 4.787-1.436 5.505-1.867.431-1.149.431-1.149z" fill="url(#G)"/><path d="M29.001 11.112s-.583-1.245-4.598-1.438l-8.175-.429c-.814 0-2.287-.03-1.534.914l2.261 3.09s.533-1.878 1.969-1.878 2.957 2.274 4.393 2.603 4.583-1.306 5.292-1.745.392-1.117.392-1.117z" fill="url(#H)"/><path d="M28.732 11.097s-.592-1.139-4.409-1.345l-8.069-.426c-.814 0-2.18-.013-1.441.918l2.128 2.829s.54-1.793 1.976-1.793 2.946 2.203 4.382 2.524 4.378-1.175 5.079-1.623.354-1.084.354-1.084z" fill="url(#I)"/><path d="M28.462 11.082s-.601-1.04-4.219-1.251l-7.962-.424c-.814 0-2.074.004-1.347.923l1.995 2.568s.546-1.708 1.982-1.708 2.935 2.132 4.372 2.446 4.174-1.044 4.866-1.501c.686-.455.313-1.053.313-1.053z" fill="url(#J)"/><path d="M28.192 11.067s-.61-.942-4.03-1.158l-7.855-.422c-.814 0-1.967.022-1.253.927l1.863 2.307s.553-1.623 1.989-1.623 2.925 2.061 4.361 2.368 3.969-.914 4.652-1.38c.675-.461.273-1.019.273-1.019z" fill="url(#K)"/><path d="M27.922 11.051s-.619-.846-3.841-1.064l-7.749-.42c-.814 0-1.86.039-1.16.931l1.73 2.045s.559-1.538 1.995-1.538 2.914 1.989 4.35 2.289 3.765-.783 4.439-1.258c.667-.466.236-.985.236-.985z" fill="url(#L)"/><path d="M27.652 11.036s-.628-.75-3.651-.971l-7.642-.418c-.814 0-1.754.057-1.066.936a22.17 22.17 0 0 0 1.597 1.784s.566-1.454 2.002-1.454 2.903 1.918 4.339 2.211 3.56-.653 4.226-1.136c.655-.473.195-.952.195-.952z" fill="url(#M)"/><path d="M27.382 11.021s-.637-.655-3.462-.877l-7.536-.416c-.814 0-1.647.074-.973.94a10.79 10.79 0 0 0 1.464 1.523s.572-1.369 2.008-1.369 2.892 1.847 4.328 2.132 3.355-.522 4.013-1.014c.647-.48.158-.919.158-.919z" fill="url(#N)"/><path d="M27.113 11.006s-.645-.562-3.273-.783l-7.429-.413c-.814 0-1.541.091-.879.944.678.874 1.332 1.262 1.332 1.262s.579-1.284 2.015-1.284 2.881 1.776 4.317 2.054 3.151-.392 3.799-.892c.635-.489.118-.888.118-.888z" fill="url(#O)"/><path d="M26.843 10.991s-.654-.469-3.083-.69l-7.322-.411c-.814 0-1.434.109-.786.949.667.864 1.199 1.001 1.199 1.001s.585-1.199 2.022-1.199 2.87 1.704 4.306 1.976 2.946-.261 3.586-.77c.624-.497.078-.856.078-.856z" fill="url(#P)"/><path d="M26.573 10.975s-.662-.378-2.894-.596l-7.216-.409c-.814 0-1.327.126-.692.953.656.854 1.066.74 1.066.74s.592-1.114 2.028-1.114 2.859 1.633 4.295 1.897 2.742-.131 3.373-.648c.615-.504.04-.823.04-.823z" fill="url(#Q)"/><path d="M26.303 10.96s-.67-.287-2.705-.503l-7.109-.407c-.814 0-1.221.144-.598.957.645.843.934.479.934.479s.598-1.029 2.035-1.029 2.848 1.562 4.285 1.819 2.537 0 3.16-.527c.602-.51-.002-.789-.002-.789z" fill="#323232"/><path d="M20.319 31.17c-5.785 1.687-7.449-.268-7.891-1.146-.409.6-.919 1.106-1.588 1.465 0 0-1.037.614-.696 1.724 1.632 1.967 5.563 2.307 9.281 2.425 4.021.128 6.187-1.004 7.532-2.872 1.149-1.596-.51-3.383-6.638-1.596z" fill="url(#R)"/><path d="M12.883 34.33c-1.531-.434-2.432-1.226-2.772-1.882-.096.377-.042.858.378 1.435-.028.035-.047.068-.071.102.549.62 1.378 1.201 2.528 1.558 6.175 1.532 10.915-.191 10.915-.191-5.425.414-8.728-.384-10.978-1.022z" fill="url(#S)"/><path d="M13.114 28.793s-.367.765-.686 1.232c.088.707.495 1.042 1.668 1.425s4.907 1.293 8.785-2.274c-.791-.072-9.767-.383-9.767-.383z" fill="url(#T)"/><path d="M25.936 1.808c-1.785 0-3.712-.151-5.96.28-2.268 1.193-3.9 3.315-4.953 5.129.491-.197 1.906-.69 3.253-.43 1.66.319 4.723 2.362 7.851.894s2.554-5.873-.191-5.873z" fill="url(#U)"/><path d="M11.102 42.377c.196 1.009.63 1.478.898 1.623 0 0 6 3 8 3 7 0 14-10 15-12s1-4 1-4l-.235-5.784C36.069 34.537 25.423 43.791 23 45.069c-2.633 1.388-6.75-1.085-8.521-1.803-1.363-.553-2.743-.428-3.377-.889z" fill="url(#V)"/><path d="M20.654 14.91s-1.388 7.755-3.83 10.915c-1.58 1.963-3.255 1.34-3.255 1.34s.431 1.149 4.213 1.293c3.399-2.489 4.021-13.309 4.021-13.309.112-1.34-.909-1.229-1.149-.239z" fill="url(#W)"/><path d="M22.521 28.793c.79-.144.383.694-.479.862 0 0-5.495.989-9.043-.654l-4-2c-.314-.362 2.319-1.08 4.904.165s6.608 1.866 8.618 1.627z" fill="url(#X)"/><path d="M21.434 34.923s6.288-.416 8.231-4.576c-1.424.181-3.623.467-5.118-.36s-7.448 5.816-3.113 4.936z" fill="url(#Y)"/><path d="M31.202 16.936l.008 7.572c.215 1.293.838-.311.79-1.077L31.649 17c0-.894-.415-.351-.447-.064z" fill="url(#Z)"/><path d="M33.053 11.447S34.776 23 34.33 24.404s-1.723.957-2.426.83-.894.319-.128 1.021 3.16 1.309 3.734-.351-.733-10.053-2.457-14.457z" fill="url(#a)"/><defs><linearGradient id="A" x1="11.271" y1="17.424" x2="36.379" y2="29.358" xlink:href="#b"><stop offset=".001" stop-color="#979595"/><stop offset=".166" stop-color="#878686"/><stop offset=".421" stop-color="#757575"/><stop offset=".692" stop-color="#6a6a6a"/><stop offset="1" stop-color="#676767"/></linearGradient><radialGradient id="B" cx="0" cy="0" r="1" gradientTransform="translate(15.3269 38.5821) scale(7.21106 7.21107)" xlink:href="#b"><stop offset=".001" stop-color="#979595"/><stop offset=".939" stop-color="#6f6f6f"/><stop offset="1" stop-color="#6c6c6c"/></radialGradient><radialGradient id="C" cx="0" cy="0" r="1" gradientTransform="translate(13.4131 35.2693) scale(8.599 8.599)" xlink:href="#b"><stop offset=".001" stop-color="#979595"/><stop offset=".847" stop-color="#6f6e6e"/><stop offset="1" stop-color="#676767"/></radialGradient><linearGradient id="D" x1="20.798" y1="26.344" x2="27.385" y2="26.344" xlink:href="#b"><stop stop-color="#676767"/><stop offset=".335" stop-color="#646464"/><stop offset=".628" stop-color="#595959"/><stop offset=".905" stop-color="#474747"/><stop offset=".999" stop-color="#3f3f3f"/></linearGradient><radialGradient id="E" cx="0" cy="0" r="1" gradientTransform="translate(26.2991 15.5945) scale(5.846)" xlink:href="#b"><stop offset=".001" stop-color="#979595"/><stop offset=".573" stop-color="#797878"/><stop offset="1" stop-color="#676767"/></radialGradient><radialGradient id="F" cx="0" cy="0" r="1" gradientTransform="translate(21.845 24.73) scale(10.035)" xlink:href="#b"><stop stop-color="#fff" stop-opacity=".7"/><stop offset="1" stop-color="#fff" stop-opacity="0"/></radialGradient><linearGradient id="G" x1="16.896" y1="6.34" x2="38.393" y2="26.726" xlink:href="#b"><stop offset=".001" stop-color="#979595"/><stop offset=".166" stop-color="#878686"/><stop offset=".421" stop-color="#757575"/><stop offset=".692" stop-color="#6a6a6a"/><stop offset="1" stop-color="#676767"/></linearGradient><linearGradient id="H" x1="16.979" y1="6.465" x2="37.887" y2="26.292" xlink:href="#b"><stop offset=".001" stop-color="#8e8c8c"/><stop offset=".133" stop-color="#828181"/><stop offset=".398" stop-color="#707070"/><stop offset=".679" stop-color="#656565"/><stop offset="1" stop-color="#626262"/></linearGradient><linearGradient id="I" x1="17.061" y1="6.59" x2="37.382" y2="25.86" xlink:href="#b"><stop offset=".001" stop-color="#858383"/><stop offset=".095" stop-color="#7d7b7b"/><stop offset=".372" stop-color="#6b6a6a"/><stop offset=".665" stop-color="#606060"/><stop offset="1" stop-color="#5d5d5d"/></linearGradient><linearGradient id="J" x1="17.143" y1="6.712" x2="36.88" y2="25.429" xlink:href="#b"><stop offset=".001" stop-color="#7b7a7a"/><stop offset=".027" stop-color="#797878"/><stop offset=".325" stop-color="#676767"/><stop offset=".64" stop-color="#5c5c5c"/><stop offset="1" stop-color="#595959"/></linearGradient><linearGradient id="K" x1="17.224" y1="6.833" x2="36.38" y2="24.998" xlink:href="#b"><stop offset=".001" stop-color="#727171"/><stop offset=".286" stop-color="#626262"/><stop offset=".619" stop-color="#575757"/><stop offset="1" stop-color="#545454"/></linearGradient><linearGradient id="L" x1="17.306" y1="6.952" x2="35.882" y2="24.568" xlink:href="#b"><stop offset=".001" stop-color="#696868"/><stop offset=".239" stop-color="#5d5d5d"/><stop offset=".594" stop-color="#525252"/><stop offset="1" stop-color="#4f4f4f"/></linearGradient><linearGradient id="M" x1="17.386" y1="7.069" x2="35.387" y2="24.139" xlink:href="#b"><stop offset=".001" stop-color="#605f5f"/><stop offset=".18" stop-color="#585858"/><stop offset=".563" stop-color="#4d4d4d"/><stop offset="1" stop-color="#4a4a4a"/></linearGradient><linearGradient id="N" x1="17.461" y1="7.189" x2="34.889" y2="23.717" xlink:href="#b"><stop offset=".001" stop-color="#575656"/><stop offset=".103" stop-color="#535252"/><stop offset=".522" stop-color="#484848"/><stop offset="1" stop-color="#454545"/></linearGradient><linearGradient id="O" x1="17.519" y1="7.324" x2="34.38" y2="23.313" xlink:href="#b"><stop offset=".001" stop-color="#4e4d4d"/><stop offset=".465" stop-color="#434343"/><stop offset="1" stop-color="#404040"/></linearGradient><linearGradient id="P" x1="17.571" y1="7.462" x2="33.867" y2="22.916" xlink:href="#b"><stop offset=".001" stop-color="#444"/><stop offset=".313" stop-color="#3f3f3f"/><stop offset="1" stop-color="#3c3c3c"/></linearGradient><linearGradient id="Q" x1="17.619" y1="7.6" x2="33.356" y2="22.525" xlink:href="#b"><stop offset=".001" stop-color="#3b3b3b"/><stop offset=".063" stop-color="#3a3a3a"/><stop offset="1" stop-color="#373737"/></linearGradient><radialGradient id="R" cx="0" cy="0" r="1" gradientTransform="translate(13.543 34.8519) scale(8.25899 8.259)" xlink:href="#b"><stop offset=".001" stop-color="#979595"/><stop offset=".919" stop-color="#6f6f6f"/><stop offset="1" stop-color="#6b6b6b"/></radialGradient><linearGradient id="S" x1="10.07" y1="34.313" x2="23.862" y2="34.313" xlink:href="#b"><stop stop-color="#676767"/><stop offset=".434" stop-color="#505050"/><stop offset=".999" stop-color="#2d2d2d"/></linearGradient><linearGradient id="T" x1="11.12" y1="30.317" x2="21.572" y2="30.317" xlink:href="#b"><stop stop-color="#888787"/><stop offset=".35" stop-color="#727171"/><stop offset="1" stop-color="#3f3f3f"/></linearGradient><radialGradient id="U" cx="0" cy="0" r="1" gradientTransform="translate(22.9742 2.98433) scale(8.358)" xlink:href="#b"><stop stop-color="#bcbcbc"/><stop offset="1" stop-color="#fff" stop-opacity="0"/></radialGradient><linearGradient id="V" x1="22.824" y1="33.286" x2="33.113" y2="46.876" xlink:href="#b"><stop stop-color="#676767"/><stop offset=".434" stop-color="#505050"/><stop offset=".999" stop-color="#2d2d2d"/></linearGradient><linearGradient id="W" x1="16.26" y1="19.139" x2="21.687" y2="25.648" xlink:href="#b"><stop stop-color="#676767"/><stop offset=".335" stop-color="#646464"/><stop offset=".628" stop-color="#595959"/><stop offset=".905" stop-color="#474747"/><stop offset=".999" stop-color="#3f3f3f"/></linearGradient><linearGradient id="X" x1="7.425" y1="24.75" x2="20.412" y2="29.895" xlink:href="#b"><stop stop-color="#676767"/><stop offset=".434" stop-color="#505050"/><stop offset=".999" stop-color="#2d2d2d"/></linearGradient><radialGradient id="Y" cx="0" cy="0" r="1" gradientTransform="translate(24.9647 34.1429) scale(5.416)" xlink:href="#b"><stop stop-color="#fff" stop-opacity=".2"/><stop offset="1" stop-color="#fff" stop-opacity="0"/></radialGradient><radialGradient id="Z" cx="0" cy="0" r="1" gradientTransform="translate(26.8501 19.6066) scale(5.938 5.938)" xlink:href="#b"><stop offset=".001" stop-color="#979595"/><stop offset=".939" stop-color="#6f6f6f"/><stop offset="1" stop-color="#6c6c6c"/></radialGradient><linearGradient id="a" x1="31.188" y1="5.532" x2="34.789" y2="35.529" xlink:href="#b"><stop stop-color="#6c6c6c"/><stop offset=".536" stop-color="#565656"/><stop offset="1" stop-color="#3f3f3f"/></linearGradient><linearGradient id="b" gradientUnits="userSpaceOnUse"/></defs></svg>