<svg xmlns="http://www.w3.org/2000/svg" width="48" height="48" fill="#78ff48" xmlns:v="https://vecta.io/nano"><path opacity=".35" d="M32 38H12a6 6 0 0 1-6-6V12a6 6 0 0 1 6-6h20a6 6 0 0 1 6 6v20a6 6 0 0 1-6 6z"/><path d="M37.72 10.28c.164.548.28 1.118.28 1.72v20a6 6 0 0 1-6 6H12c-.602 0-1.172-.116-1.72-.28C11.024 40.19 13.288 42 16 42h20a6 6 0 0 0 6-6V16c0-2.712-1.81-4.976-4.28-5.72zM27 20a3 3 0 1 0 0-6 3 3 0 1 0 0 6zM12 30.75c0 .684.56 1.25 1.25 1.25h17.5A1.25 1.25 0 0 0 32 30.75c0-1.704-.944-6.75-3-6.75-1.014 0-2.59 2-4 2-2.8 0-5.5-6-8-6s-5 7.452-5 10.75z"/></svg>