<svg xmlns="http://www.w3.org/2000/svg" width="48" height="48" fill="#d764ff" xmlns:v="https://vecta.io/nano"><path opacity=".35" d="M34 20V10a4 4 0 0 0-4-4H20a4 4 0 0 0-4 4v6H6a4 4 0 0 0-4 4v14a6 6 0 0 0 6 6h32a6 6 0 0 0 6-6V24a4 4 0 0 0-4-4h-8z"/><path d="M24.11 20.67v-7.516l-.714.54c-.574.434-1.398.264-1.756-.36-.302-.528-.16-1.198.33-1.556l1.954-1.43c.308-.228.678-.348 1.058-.348a1.79 1.79 0 0 1 1.788 1.788v8.88a1.33 1.33 0 1 1-2.66.002zm-10.308 2.712c0 2.1-1.434 3.262-3.992 6.29h2.684a1.16 1.16 0 0 1 1.158 1.158 1.16 1.16 0 0 1-1.158 1.158H8.36a1.74 1.74 0 0 1-1.738-1.738c0-.416.15-.82.42-1.134 2.942-3.414 4.126-4.398 4.126-5.7 0-.346-.072-1.258-1.006-1.258-.534 0-.832.34-.998.724-.21.486-.72.77-1.248.72-.838-.078-1.39-.956-1.042-1.72.472-1.036 1.428-2.022 3.372-2.022 2.844 0 3.556 2.13 3.556 3.522zm27.778 9.074c0 2.664-1.976 3.71-3.726 3.71-1.65 0-2.64-.682-3.214-1.482-.494-.69-.114-1.664.708-1.872.508-.13 1.022.094 1.324.522a1.23 1.23 0 0 0 1.064.542c1.022 0 1.254-1.054 1.254-1.538 0-1.076-.682-1.504-1.62-1.504h-.02c-.544 0-.986-.442-.986-.986s.442-.986.986-.986h.088c.446 0 1.386-.156 1.386-1.488 0-.334-.136-1.254-1.086-1.254-.41 0-.676.2-.85.44-.272.374-.718.576-1.168.466l-.152-.038c-.736-.182-1.084-1.05-.646-1.668.524-.744 1.438-1.488 3.002-1.488 1.974 0 3.424 1.29 3.424 3.21 0 1.624-.878 2.486-1.62 2.69v.05c.634.14 1.852.928 1.852 2.674z"/></svg>