<svg xmlns="http://www.w3.org/2000/svg" xmlns:xlink="http://www.w3.org/1999/xlink" width="34" height="27" fill="none" xmlns:v="https://vecta.io/nano"><use xlink:href="#E" fill="#fa0"/><use xlink:href="#E" fill="url(#A)"/><circle cx="17" cy="4" r="4" fill="#edbe00"/><circle cx="17" cy="18" r="3" fill="url(#B)"/><g fill="#edbe00"><circle cx="31.5" cy="10.5" r="2.5"/><circle cx="2.5" cy="10.5" r="2.5"/></g><circle cx="9.5" cy="19.5" r="1.5" fill="url(#C)"/><circle cx="24.5" cy="19.5" r="1.5" fill="url(#D)"/><defs><linearGradient id="A" x1="27.408" y1="33.337" x2="15.274" y2="9.491" gradientUnits="userSpaceOnUse"><stop stop-color="#ffd000"/><stop offset="1" stop-color="#fede00"/></linearGradient><linearGradient id="B" x1="14" y1="18" x2="20" y2="18" gradientUnits="userSpaceOnUse"><stop stop-color="#f44f5a"/><stop offset=".443" stop-color="#ee3d4a"/><stop offset="1" stop-color="#e52030"/></linearGradient><linearGradient id="C" x1="8" y1="19.5" x2="11" y2="19.5" gradientUnits="userSpaceOnUse"><stop stop-color="#f44f5a"/><stop offset=".443" stop-color="#ee3d4a"/><stop offset="1" stop-color="#e52030"/></linearGradient><linearGradient id="D" x1="23" y1="19.5" x2="26" y2="19.5" gradientUnits="userSpaceOnUse"><stop stop-color="#f44f5a"/><stop offset=".443" stop-color="#ee3d4a"/><stop offset="1" stop-color="#e52030"/></linearGradient><path id="E" d="M30.3 11.568c-.275-.213-.609-.35-.963-.396s-.716.003-1.043.139l-6.079 2.51-3.532-5.913a1.87 1.87 0 0 0-.709-.665 2.05 2.05 0 0 0-1.946 0 1.87 1.87 0 0 0-.709.665l-3.532 5.913-6.079-2.51c-.327-.136-.689-.184-1.045-.139s-.69.181-.966.394-.483.492-.597.808-.13.655-.048.979l3.052 12.082a1.72 1.72 0 0 0 .32.648 1.87 1.87 0 0 0 .569.479 2.06 2.06 0 0 0 .997.257 1.96 1.96 0 0 0 .505-.067c5.562-1.428 11.438-1.428 17 0 .508.124 1.048.056 1.502-.19.224-.121.419-.283.572-.477s.261-.415.317-.65l3.064-12.082c.082-.324.064-.663-.05-.979a1.79 1.79 0 0 0-.599-.806h0z"/></defs></svg>