<svg width="141" height="77" viewBox="0 0 141 77" fill="none" xmlns="http://www.w3.org/2000/svg">
<g clip-path="url(#clip0_133_566)">
<g filter="url(#filter0_d_133_566)">
<path d="M64.6343 38.11C63.593 38.11 62.691 37.978 61.9283 37.714C61.1803 37.4353 60.601 36.9953 60.1903 36.394C59.7797 35.778 59.545 34.9567 59.4863 33.93L59.0903 25.064H62.1923L62.5663 32.852C62.5957 33.4533 62.691 33.9153 62.8523 34.238C63.0283 34.546 63.2777 34.7587 63.6003 34.876C63.923 34.9787 64.341 35.03 64.8543 35.03C65.4117 35.03 65.8077 35.1767 66.0423 35.47C66.277 35.7487 66.3943 36.1007 66.3943 36.526C66.3943 36.9807 66.2403 37.362 65.9323 37.67C65.639 37.9633 65.2063 38.11 64.6343 38.11ZM60.6083 36.064C59.6257 36.284 58.6797 36.3867 57.7703 36.372C56.861 36.3427 56.047 36.1813 55.3283 35.888C54.6097 35.58 54.0377 35.14 53.6123 34.568C53.2017 33.996 52.9963 33.27 52.9963 32.39C52.9963 31.6127 53.165 30.9087 53.5023 30.278C53.8543 29.6327 54.3383 29.068 54.9543 28.584C55.585 28.1 56.3183 27.6893 57.1543 27.352C57.9903 27.0147 58.8997 26.758 59.8823 26.582L60.1903 29.706C59.5597 29.7353 58.9877 29.8233 58.4743 29.97C57.9757 30.102 57.543 30.278 57.1763 30.498C56.8243 30.718 56.553 30.9673 56.3623 31.246C56.1717 31.51 56.0763 31.796 56.0763 32.104C56.0763 32.3533 56.1643 32.5587 56.3403 32.72C56.5163 32.8813 56.751 33.0133 57.0443 33.116C57.3377 33.204 57.675 33.2553 58.0563 33.27C58.4377 33.2847 58.8263 33.2627 59.2223 33.204C59.633 33.1453 60.0363 33.05 60.4323 32.918L60.6083 36.064ZM60.6743 22.798C60.249 22.798 59.8823 22.6513 59.5743 22.358C59.281 22.05 59.1343 21.6907 59.1343 21.28C59.1343 20.8547 59.281 20.488 59.5743 20.18C59.8823 19.872 60.249 19.718 60.6743 19.718C61.085 19.718 61.437 19.872 61.7303 20.18C62.0237 20.488 62.1703 20.8547 62.1703 21.28C62.1703 21.6907 62.0237 22.05 61.7303 22.358C61.437 22.6513 61.085 22.798 60.6743 22.798ZM56.8683 22.776C56.443 22.776 56.0763 22.6293 55.7683 22.336C55.475 22.028 55.3283 21.6687 55.3283 21.258C55.3283 20.8327 55.475 20.466 55.7683 20.158C56.0763 19.85 56.443 19.696 56.8683 19.696C57.279 19.696 57.631 19.85 57.9243 20.158C58.2177 20.466 58.3643 20.8327 58.3643 21.258C58.3643 21.6687 58.2177 22.028 57.9243 22.336C57.631 22.6293 57.279 22.776 56.8683 22.776ZM64.627 38.11L64.847 35.03C65.1843 35.03 65.4703 34.9493 65.705 34.788C65.9543 34.612 66.211 34.326 66.475 33.93C66.739 33.5193 67.047 32.9693 67.399 32.28C67.839 31.4 68.2936 30.7107 68.763 30.212C69.247 29.7133 69.7383 29.3613 70.237 29.156C70.7503 28.936 71.2636 28.826 71.777 28.826C72.4223 28.826 73.0236 28.9653 73.581 29.244C74.1383 29.5227 74.6223 29.904 75.033 30.388C75.4436 30.8573 75.759 31.4 75.979 32.016C76.2136 32.6173 76.331 33.2407 76.331 33.886C76.331 34.6633 76.1623 35.3673 75.825 35.998C75.5023 36.614 75.0476 37.1053 74.461 37.472C73.889 37.824 73.229 38 72.481 38C71.8503 38 71.117 37.89 70.281 37.67C69.445 37.45 68.565 36.988 67.641 36.284L68.763 33.622C69.423 34.0767 70.039 34.4067 70.611 34.612C71.1976 34.8173 71.6816 34.92 72.063 34.92C72.3563 34.92 72.5983 34.8907 72.789 34.832C72.9796 34.7733 73.119 34.678 73.207 34.546C73.295 34.414 73.339 34.238 73.339 34.018C73.339 33.71 73.2656 33.3947 73.119 33.072C72.9723 32.7493 72.7743 32.478 72.525 32.258C72.2903 32.0233 72.0116 31.906 71.689 31.906C71.381 31.906 71.117 32.0233 70.897 32.258C70.6916 32.478 70.4863 32.8007 70.281 33.226C70.0903 33.6367 69.8556 34.1207 69.577 34.678C69.2396 35.3527 68.9096 35.9173 68.587 36.372C68.2643 36.812 67.9196 37.164 67.553 37.428C67.201 37.6773 66.783 37.8533 66.299 37.956C65.8296 38.0587 65.2723 38.11 64.627 38.11ZM84.4056 38.11C83.0416 38.11 81.9856 37.9707 81.2376 37.692C80.5043 37.4133 79.991 36.9807 79.6976 36.394C79.4043 35.7927 79.2356 35.0373 79.1916 34.128L78.7296 21.896H81.8096L82.2716 32.654C82.301 33.3287 82.3743 33.8347 82.4916 34.172C82.609 34.5093 82.829 34.7367 83.1516 34.854C83.489 34.9713 83.9803 35.03 84.6256 35.03C85.183 35.03 85.579 35.1767 85.8136 35.47C86.063 35.7487 86.1876 36.1007 86.1876 36.526C86.1876 36.9807 86.0336 37.362 85.7256 37.67C85.4176 37.9633 84.9776 38.11 84.4056 38.11ZM84.4355 38.11L84.6555 35.03C85.0222 35.03 85.3009 34.9567 85.4915 34.81C85.6822 34.6633 85.8729 34.4067 86.0635 34.04C86.2542 33.6733 86.5182 33.1747 86.8555 32.544C87.2222 31.84 87.6035 31.2533 87.9995 30.784C88.3955 30.3 88.7915 29.9187 89.1875 29.64C89.5982 29.3467 90.0015 29.1413 90.3975 29.024C90.8082 28.892 91.2115 28.826 91.6075 28.826C92.1502 28.826 92.6562 28.9433 93.1255 29.178C93.6095 29.398 94.0715 29.7867 94.5115 30.344C94.9515 30.8867 95.3695 31.6347 95.7655 32.588C96.0442 33.248 96.3229 33.754 96.6015 34.106C96.8802 34.458 97.1662 34.7 97.4595 34.832C97.7675 34.964 98.0755 35.03 98.3835 35.03C98.9409 35.03 99.3369 35.1767 99.5715 35.47C99.8062 35.7487 99.9235 36.1007 99.9235 36.526C99.9235 36.9807 99.7695 37.362 99.4615 37.67C99.1535 37.9633 98.7209 38.11 98.1635 38.11C97.4449 38.11 96.7922 37.9927 96.2055 37.758C95.6189 37.5233 95.1569 37.1713 94.8195 36.702L95.4575 36.218C95.3255 36.526 95.1275 36.8487 94.8635 37.186C94.6142 37.5233 94.2842 37.8093 93.8735 38.044C93.4775 38.2787 93.0009 38.396 92.4435 38.396C92.0769 38.396 91.6442 38.3227 91.1455 38.176C90.6615 38.044 90.1555 37.8167 89.6275 37.494C89.1142 37.1567 88.6375 36.702 88.1975 36.13C87.9189 36.6433 87.6109 37.0467 87.2735 37.34C86.9362 37.6187 86.5402 37.8167 86.0855 37.934C85.6309 38.0513 85.0809 38.11 84.4355 38.11ZM89.4735 33.534C89.6202 33.754 89.7962 33.974 90.0015 34.194C90.2069 34.414 90.4342 34.612 90.6835 34.788C90.9329 34.9493 91.1969 35.0813 91.4755 35.184C91.7689 35.2867 92.0549 35.338 92.3335 35.338C92.6269 35.338 92.8689 35.228 93.0595 35.008C93.2502 34.7733 93.2575 34.4287 93.0815 33.974C93.0082 33.7833 92.9055 33.5707 92.7735 33.336C92.6562 33.0867 92.5169 32.852 92.3555 32.632C92.2089 32.412 92.0402 32.2287 91.8495 32.082C91.6735 31.9353 91.4902 31.862 91.2995 31.862C91.1089 31.862 90.9109 31.9207 90.7055 32.038C90.5002 32.1553 90.2949 32.3387 90.0895 32.588C89.8842 32.8227 89.6789 33.138 89.4735 33.534ZM98.1641 38.11L98.3841 35.03C99.1761 35.03 99.9607 34.986 100.738 34.898C101.515 34.81 102.271 34.678 103.004 34.502C103.737 34.326 104.434 34.0987 105.094 33.82C105.769 33.5413 106.399 33.204 106.986 32.808C106.546 32.544 106.069 32.3167 105.556 32.126C105.043 31.9353 104.493 31.796 103.906 31.708C103.334 31.6053 102.725 31.554 102.08 31.554C101.845 31.554 101.596 31.5613 101.332 31.576C101.083 31.5907 100.826 31.62 100.562 31.664C100.298 31.6933 100.034 31.7373 99.7701 31.796L99.3301 28.782C99.7554 28.6647 100.203 28.584 100.672 28.54C101.156 28.4813 101.581 28.452 101.948 28.452C102.74 28.452 103.466 28.54 104.126 28.716C104.801 28.892 105.417 29.112 105.974 29.376C106.546 29.64 107.074 29.904 107.558 30.168C108.057 30.432 108.526 30.652 108.966 30.828C109.421 31.004 109.861 31.092 110.286 31.092H111.1L111.452 34.018C110.821 34.0473 110.227 34.172 109.67 34.392C109.127 34.5973 108.585 34.8613 108.042 35.184C107.514 35.492 106.942 35.8147 106.326 36.152C105.725 36.4893 105.043 36.8047 104.28 37.098C103.517 37.3913 102.637 37.6333 101.64 37.824C100.643 38.0147 99.4841 38.11 98.1641 38.11ZM31.5544 64.384C31.5544 64.0467 31.5838 63.6507 31.6424 63.196C31.7011 62.7413 31.8111 62.228 31.9724 61.656C32.1338 61.0693 32.3758 60.4167 32.6984 59.698L35.4044 60.644C35.2431 61.0987 35.1038 61.5167 34.9864 61.898C34.8691 62.2647 34.7811 62.6093 34.7224 62.932C34.6638 63.24 34.6344 63.548 34.6344 63.856C34.6344 64.5747 34.7958 65.1613 35.1184 65.616C35.4558 66.0853 35.9251 66.43 36.5264 66.65C37.1278 66.8847 37.8244 67.002 38.6164 67.002C39.5258 67.002 40.2738 66.8773 40.8604 66.628C41.4471 66.3933 41.9018 66.078 42.2244 65.682C42.5471 65.3007 42.7744 64.8827 42.9064 64.428C43.0384 63.9587 43.1044 63.504 43.1044 63.064C43.1044 62.4627 43.0018 61.7513 42.7964 60.93C42.5911 60.094 42.2244 59.1553 41.6964 58.114L44.5344 56.904C44.8278 57.4173 45.0991 58.0187 45.3484 58.708C45.5978 59.3827 45.7958 60.0867 45.9424 60.82C46.1038 61.5533 46.1844 62.25 46.1844 62.91C46.1844 63.4967 46.1111 64.12 45.9644 64.78C45.8178 65.4253 45.5684 66.0633 45.2164 66.694C44.8791 67.3247 44.4171 67.8893 43.8304 68.388C43.2438 68.9013 42.5178 69.312 41.6524 69.62C40.7871 69.928 39.7531 70.082 38.5504 70.082C37.5824 70.082 36.6731 69.972 35.8224 69.752C34.9864 69.5467 34.2458 69.2167 33.6004 68.762C32.9698 68.3073 32.4711 67.7133 32.1044 66.98C31.7378 66.2613 31.5544 65.396 31.5544 64.384ZM38.7264 56.024C38.2718 56.024 37.8831 55.87 37.5604 55.562C37.2524 55.254 37.0984 54.8727 37.0984 54.418C37.0984 53.9633 37.2524 53.5747 37.5604 53.252C37.8831 52.9293 38.2718 52.768 38.7264 52.768C39.1664 52.768 39.5404 52.9293 39.8484 53.252C40.1711 53.5747 40.3324 53.9633 40.3324 54.418C40.3324 54.8727 40.1711 55.254 39.8484 55.562C39.5404 55.87 39.1664 56.024 38.7264 56.024ZM48.5431 70.06L47.9051 66.98C48.9464 66.848 49.8557 66.6867 50.6331 66.496C51.4104 66.32 52.0631 66.0707 52.5911 65.748C53.1191 65.4253 53.5151 64.9853 53.7791 64.428C54.0431 63.856 54.1751 63.1227 54.1751 62.228C54.1751 61.3627 54.0431 60.6733 53.7791 60.16C53.5151 59.6467 53.1631 59.39 52.7231 59.39C52.4151 59.39 52.1584 59.5 51.9531 59.72C51.7477 59.9253 51.5937 60.1747 51.4911 60.468C51.4031 60.7467 51.3591 60.996 51.3591 61.216C51.3591 61.348 51.3957 61.4873 51.4691 61.634C51.5424 61.7807 51.7037 61.9053 51.9531 62.008C52.2024 62.1107 52.5911 62.1693 53.1191 62.184C53.6617 62.1987 54.3951 62.1473 55.3191 62.03H59.0151C59.5724 62.03 59.9684 62.1767 60.2031 62.47C60.4524 62.7487 60.5771 63.1007 60.5771 63.526C60.5771 63.9807 60.4231 64.362 60.1151 64.67C59.8071 64.9633 59.3671 65.11 58.7951 65.11H52.7451C51.8211 65.11 51.0291 65 50.3691 64.78C49.7091 64.56 49.2031 64.208 48.8511 63.724C48.4991 63.2253 48.3231 62.5653 48.3231 61.744C48.3231 61.084 48.4331 60.424 48.6531 59.764C48.8877 59.104 49.2104 58.5027 49.6211 57.96C50.0317 57.4027 50.5084 56.9627 51.0511 56.64C51.6084 56.3027 52.2097 56.134 52.8551 56.134C53.7351 56.134 54.5051 56.4053 55.1651 56.948C55.8251 57.4907 56.3384 58.2093 56.7051 59.104C57.0864 59.9987 57.2771 60.974 57.2771 62.03C57.2771 63.6873 56.9251 65.0953 56.2211 66.254C55.5171 67.4127 54.5124 68.3073 53.2071 68.938C51.9017 69.5833 50.3471 69.9573 48.5431 70.06ZM58.8262 65.11L59.0462 62.03C59.9262 62.03 60.6008 61.986 61.0702 61.898C61.5395 61.81 61.8622 61.6487 62.0382 61.414C62.2288 61.1647 62.3242 60.8127 62.3242 60.358C62.3242 59.9473 62.2655 59.456 62.1482 58.884C62.0455 58.312 61.9062 57.718 61.7302 57.102C61.5688 56.486 61.3928 55.9213 61.2022 55.408L64.2382 54.572C64.4288 55.0707 64.6122 55.65 64.7882 56.31C64.9642 56.97 65.1108 57.652 65.2282 58.356C65.3455 59.0453 65.4042 59.7127 65.4042 60.358C65.4042 61.3553 65.2428 62.1693 64.9202 62.8C64.5975 63.416 64.1428 63.8927 63.5562 64.23C62.9842 64.5673 62.2948 64.802 61.4882 64.934C60.6815 65.0513 59.7942 65.11 58.8262 65.11ZM64.7882 52.79C64.3628 52.79 63.9962 52.6433 63.6882 52.35C63.3948 52.042 63.2482 51.6827 63.2482 51.272C63.2482 50.8467 63.3948 50.48 63.6882 50.172C63.9962 49.864 64.3628 49.71 64.7882 49.71C65.1988 49.71 65.5508 49.864 65.8442 50.172C66.1375 50.48 66.2842 50.8467 66.2842 51.272C66.2842 51.6827 66.1375 52.042 65.8442 52.35C65.5508 52.6433 65.1988 52.79 64.7882 52.79ZM60.9822 52.768C60.5568 52.768 60.1902 52.6213 59.8822 52.328C59.5888 52.02 59.4422 51.6607 59.4422 51.25C59.4422 50.8247 59.5888 50.458 59.8822 50.15C60.1902 49.842 60.5568 49.688 60.9822 49.688C61.3928 49.688 61.7448 49.842 62.0382 50.15C62.3315 50.458 62.4782 50.8247 62.4782 51.25C62.4782 51.6607 62.3315 52.02 62.0382 52.328C61.7448 52.6213 61.3928 52.768 60.9822 52.768ZM68.4924 65L68.0304 48.896H71.1104L71.5724 65H68.4924ZM72.5415 70.082L71.4195 67.354C72.1968 67.09 72.9081 66.782 73.5535 66.43C74.2135 66.078 74.7855 65.6893 75.2695 65.264C75.7535 64.8387 76.1275 64.3767 76.3915 63.878C76.6555 63.3647 76.7875 62.8147 76.7875 62.228C76.7875 61.612 76.6481 60.9373 76.3695 60.204C76.0908 59.4707 75.7535 58.7227 75.3575 57.96L78.2395 56.574C78.5035 57.0287 78.7308 57.52 78.9215 58.048C79.1268 58.5613 79.2955 59.0233 79.4275 59.434C79.5595 59.8447 79.6475 60.1233 79.6915 60.27C79.8968 60.974 80.1755 61.4433 80.5275 61.678C80.8941 61.9127 81.4808 62.03 82.2875 62.03C82.8448 62.03 83.2408 62.1767 83.4755 62.47C83.7248 62.7487 83.8495 63.1007 83.8495 63.526C83.8495 63.9807 83.6955 64.362 83.3875 64.67C83.0795 64.9633 82.6395 65.11 82.0675 65.11C81.4661 65.11 80.9381 65.022 80.4835 64.846C80.0288 64.67 79.6621 64.4133 79.3835 64.076C79.1195 63.7387 78.9508 63.3427 78.8775 62.888L79.6915 63.35C79.6035 64.1273 79.3468 64.8607 78.9215 65.55C78.5108 66.254 77.9755 66.8993 77.3155 67.486C76.6555 68.0727 75.9148 68.586 75.0935 69.026C74.2721 69.466 73.4215 69.818 72.5415 70.082ZM82.0938 65.11L82.3138 62.03C82.8418 62.03 83.2964 61.9787 83.6778 61.876C84.0591 61.7733 84.3818 61.568 84.6458 61.26C84.9098 60.9373 85.1298 60.468 85.3058 59.852C85.4964 59.236 85.6651 58.4147 85.8118 57.388L88.6938 57.872C88.6644 58.092 88.6204 58.3487 88.5617 58.642C88.5178 58.9353 88.4738 59.236 88.4298 59.544C88.4004 59.8373 88.3858 60.116 88.3858 60.38C88.3858 60.644 88.4371 60.8787 88.5398 61.084C88.6424 61.2893 88.8038 61.4653 89.0238 61.612C89.2584 61.744 89.5591 61.8467 89.9258 61.92C90.3071 61.9933 90.7691 62.03 91.3118 62.03C91.8691 62.03 92.2651 62.1767 92.4998 62.47C92.7344 62.7487 92.8518 63.1007 92.8518 63.526C92.8518 63.9807 92.6978 64.362 92.3898 64.67C92.0964 64.9633 91.6638 65.11 91.0918 65.11C90.4318 65.11 89.8304 65.0587 89.2878 64.956C88.7598 64.8533 88.2978 64.6847 87.9017 64.45C87.5204 64.2007 87.2051 63.878 86.9558 63.482C86.7211 63.0713 86.5744 62.5727 86.5158 61.986H87.5718C87.3078 62.69 86.9704 63.2547 86.5598 63.68C86.1638 64.0907 85.7164 64.3987 85.2178 64.604C84.7191 64.8093 84.1984 64.9413 83.6558 65C83.1278 65.0733 82.6071 65.11 82.0938 65.11ZM88.2318 70.214C87.8064 70.214 87.4398 70.06 87.1318 69.752C86.8384 69.4587 86.6918 69.1067 86.6918 68.696C86.6918 68.2707 86.8384 67.904 87.1318 67.596C87.4398 67.288 87.8064 67.134 88.2318 67.134C88.6424 67.134 88.9944 67.288 89.2878 67.596C89.5811 67.904 89.7278 68.2707 89.7278 68.696C89.7278 69.1067 89.5811 69.4587 89.2878 69.752C88.9944 70.06 88.6424 70.214 88.2318 70.214ZM84.4258 70.214C84.0004 70.214 83.6338 70.06 83.3258 69.752C83.0324 69.4587 82.8858 69.1067 82.8858 68.696C82.8858 68.2707 83.0324 67.904 83.3258 67.596C83.6338 67.288 84.0004 67.134 84.4258 67.134C84.8364 67.134 85.1884 67.288 85.4818 67.596C85.7751 67.904 85.9218 68.2707 85.9218 68.696C85.9218 69.1067 85.7751 69.4587 85.4818 69.752C85.1884 70.06 84.8364 70.214 84.4258 70.214ZM91.0957 65.11L91.3157 62.03C91.7997 62.03 92.1957 61.9933 92.5037 61.92C92.8117 61.832 93.061 61.6487 93.2517 61.37C93.457 61.0767 93.633 60.644 93.7797 60.072C93.941 59.4853 94.117 58.6933 94.3077 57.696L97.1677 58.224C97.1237 58.444 97.0724 58.7007 97.0137 58.994C96.955 59.2873 96.9037 59.588 96.8597 59.896C96.8157 60.1893 96.7937 60.4533 96.7937 60.688C96.7937 61.0987 96.9257 61.4287 97.1897 61.678C97.4537 61.9127 97.9524 62.03 98.6857 62.03C99.0524 62.03 99.3677 61.9933 99.6317 61.92C99.9104 61.832 100.145 61.6487 100.336 61.37C100.541 61.0767 100.717 60.6293 100.864 60.028C101.025 59.412 101.179 58.5833 101.326 57.542L104.23 58.004C104.171 58.3413 104.112 58.7007 104.054 59.082C103.995 59.4633 103.944 59.8153 103.9 60.138C103.856 60.4607 103.834 60.7247 103.834 60.93C103.834 61.1207 103.885 61.304 103.988 61.48C104.105 61.6413 104.31 61.7733 104.604 61.876C104.912 61.9787 105.344 62.03 105.902 62.03C106.298 62.03 106.635 61.9787 106.914 61.876C107.207 61.7733 107.427 61.6047 107.574 61.37C107.735 61.1353 107.816 60.8273 107.816 60.446C107.816 59.9033 107.691 59.192 107.442 58.312C107.192 57.432 106.899 56.508 106.562 55.54L109.664 54.616C109.898 55.2467 110.104 55.9213 110.28 56.64C110.47 57.344 110.617 58.0333 110.72 58.708C110.837 59.368 110.896 59.9473 110.896 60.446C110.896 61.194 110.778 61.8613 110.544 62.448C110.309 63.02 109.979 63.504 109.554 63.9C109.128 64.296 108.622 64.5967 108.036 64.802C107.449 65.0073 106.804 65.11 106.1 65.11C105.249 65.11 104.552 65.0293 104.01 64.868C103.467 64.692 103.049 64.406 102.756 64.01C102.477 63.5993 102.294 63.042 102.206 62.338H102.954C102.646 63.2033 102.301 63.834 101.92 64.23C101.538 64.6113 101.084 64.8533 100.556 64.956C100.042 65.0587 99.397 65.11 98.6197 65.11C98.1357 65.11 97.637 65.0587 97.1237 64.956C96.625 64.8387 96.1777 64.5747 95.7817 64.164C95.3857 63.7533 95.0924 63.1153 94.9017 62.25L96.0897 62.206C95.7817 63.0713 95.3784 63.7093 94.8797 64.12C94.3957 64.5307 93.8384 64.802 93.2077 64.934C92.577 65.0513 91.873 65.11 91.0957 65.11ZM102.602 51.492C102.235 51.492 101.912 51.3527 101.634 51.074C101.37 50.7953 101.238 50.4653 101.238 50.084C101.238 49.7027 101.37 49.38 101.634 49.116C101.912 48.852 102.235 48.72 102.602 48.72C102.983 48.72 103.306 48.852 103.57 49.116C103.834 49.38 103.966 49.7027 103.966 50.084C103.966 50.4653 103.834 50.7953 103.57 51.074C103.306 51.3527 102.983 51.492 102.602 51.492ZM100.842 54.396C100.475 54.396 100.152 54.2567 99.8737 53.978C99.6097 53.6993 99.4777 53.3693 99.4777 52.988C99.4777 52.6067 99.6097 52.284 99.8737 52.02C100.152 51.756 100.475 51.624 100.842 51.624C101.223 51.624 101.546 51.756 101.81 52.02C102.074 52.284 102.206 52.6067 102.206 52.988C102.206 53.3693 102.074 53.6993 101.81 53.978C101.546 54.2567 101.223 54.396 100.842 54.396ZM104.252 54.396C103.885 54.396 103.562 54.2567 103.284 53.978C103.02 53.6993 102.888 53.3693 102.888 52.988C102.888 52.6067 103.02 52.284 103.284 52.02C103.562 51.756 103.885 51.624 104.252 51.624C104.633 51.624 104.956 51.756 105.22 52.02C105.484 52.284 105.616 52.6067 105.616 52.988C105.616 53.3693 105.484 53.6993 105.22 53.978C104.956 54.2567 104.633 54.396 104.252 54.396Z" fill="#F8D000"/>
</g>
<g filter="url(#filter1_d_133_566)">
<path d="M23.9426 23.6136L24.2934 21.5455H32.5107L32.1599 23.6136H29.3161L28.0974 31H25.5676L26.7863 23.6136H23.9426ZM33.4767 21.5455H36.6713L37.9824 26.9006H38.0932L41.177 21.5455H44.3716L42.802 31H40.2907L41.1955 25.5341H41.1216L38.1301 30.9261H36.6159L35.4157 25.4972H35.3418L34.4185 31H31.9071L33.4767 21.5455Z" fill="white"/>
</g>
</g>
<defs>
<filter id="filter0_d_133_566" x="27.5542" y="19.696" width="87.8979" height="58.5181" filterUnits="userSpaceOnUse" color-interpolation-filters="sRGB">
<feFlood flood-opacity="0" result="BackgroundImageFix"/>
<feColorMatrix in="SourceAlpha" type="matrix" values="0 0 0 0 0 0 0 0 0 0 0 0 0 0 0 0 0 0 127 0" result="hardAlpha"/>
<feOffset dy="4"/>
<feGaussianBlur stdDeviation="2"/>
<feComposite in2="hardAlpha" operator="out"/>
<feColorMatrix type="matrix" values="0 0 0 0 0 0 0 0 0 0 0 0 0 0 0 0 0 0 0.25 0"/>
<feBlend mode="normal" in2="BackgroundImageFix" result="effect1_dropShadow_133_566"/>
<feBlend mode="normal" in="SourceGraphic" in2="effect1_dropShadow_133_566" result="shape"/>
</filter>
<filter id="filter1_d_133_566" x="19.9424" y="21.5454" width="28.4292" height="17.4546" filterUnits="userSpaceOnUse" color-interpolation-filters="sRGB">
<feFlood flood-opacity="0" result="BackgroundImageFix"/>
<feColorMatrix in="SourceAlpha" type="matrix" values="0 0 0 0 0 0 0 0 0 0 0 0 0 0 0 0 0 0 127 0" result="hardAlpha"/>
<feOffset dy="4"/>
<feGaussianBlur stdDeviation="2"/>
<feComposite in2="hardAlpha" operator="out"/>
<feColorMatrix type="matrix" values="0 0 0 0 0 0 0 0 0 0 0 0 0 0 0 0 0 0 0.25 0"/>
<feBlend mode="normal" in2="BackgroundImageFix" result="effect1_dropShadow_133_566"/>
<feBlend mode="normal" in="SourceGraphic" in2="effect1_dropShadow_133_566" result="shape"/>
</filter>
<clipPath id="clip0_133_566">
<rect width="141" height="77" fill="white"/>
</clipPath>
</defs>
</svg>
