<svg xmlns="http://www.w3.org/2000/svg" width="141" height="77" fill="none" xmlns:v="https://vecta.io/nano"><g clip-path="url(#D)"><mask id="A" maskUnits="userSpaceOnUse" x="0" y="0" width="141" height="77"><path d="M141 0H0V77H141V0Z" fill="#fff"/></mask><g mask="url(#A)"><g filter="url(#B)"><path d="M66.692 31.414c-1.041 0-1.943-.132-2.706-.396-.748-.279-1.327-.719-1.738-1.32-.411-.616-.645-1.437-.704-2.464l-.396-8.866h3.102l.374 7.788c.029.601.125 1.063.286 1.386.176.308.425.521.748.638.323.103.741.154 1.254.154.557 0 .953.147 1.188.44.235.279.352.631.352 1.056 0 .455-.154.836-.462 1.144-.293.293-.726.44-1.298.44zm-4.026-2.046c-.983.22-1.929.323-2.838.308-.909-.029-1.723-.191-2.442-.484-.719-.308-1.291-.748-1.716-1.32-.411-.572-.616-1.298-.616-2.178 0-.777.169-1.481.506-2.112.352-.645.836-1.21 1.452-1.694.631-.484 1.364-.895 2.2-1.232s1.745-.594 2.728-.77l.308 3.124c-.631.029-1.203.117-1.716.264-.499.132-.931.308-1.298.528-.352.22-.623.469-.814.748-.191.264-.286.55-.286.858a.8.8 0 0 0 .264.616c.176.161.411.293.704.396a4.08 4.08 0 0 0 1.012.154c.381.015.77-.007 1.166-.066a6.91 6.91 0 0 0 1.21-.286l.176 3.146zm.066-13.266a1.54 1.54 0 0 1-1.1-.44c-.293-.308-.44-.667-.44-1.078a1.54 1.54 0 0 1 .44-1.1 1.5 1.5 0 0 1 1.1-.462c.411 0 .763.154 1.056.462a1.54 1.54 0 0 1 .44 1.1c0 .411-.147.77-.44 1.078a1.44 1.44 0 0 1-1.056.44zm-3.806-.022a1.54 1.54 0 0 1-1.1-.44c-.293-.308-.44-.667-.44-1.078a1.54 1.54 0 0 1 .44-1.1 1.5 1.5 0 0 1 1.1-.462c.411 0 .763.154 1.056.462a1.54 1.54 0 0 1 .44 1.1c0 .411-.147.77-.44 1.078a1.44 1.44 0 0 1-1.056.44zm7.759 15.334l.22-3.08c.337 0 .623-.081.858-.242.249-.176.506-.462.77-.858a19.84 19.84 0 0 0 .924-1.65c.44-.88.895-1.569 1.364-2.068.484-.499.975-.851 1.474-1.056.513-.22 1.027-.33 1.54-.33.645 0 1.247.139 1.804.418s1.041.66 1.452 1.144a5 5 0 0 1 .946 1.628 5.1 5.1 0 0 1 .352 1.87c0 .777-.169 1.481-.506 2.112a3.77 3.77 0 0 1-1.364 1.474c-.572.352-1.232.528-1.98.528-.631 0-1.364-.11-2.2-.33s-1.716-.682-2.64-1.386l1.122-2.662c.66.455 1.276.785 1.848.99.587.205 1.071.308 1.452.308.293 0 .535-.029.726-.088s.33-.154.418-.286.132-.308.132-.528c0-.308-.073-.623-.22-.946s-.345-.594-.594-.814a1.14 1.14 0 0 0-.836-.352c-.308 0-.572.117-.792.352-.205.22-.411.543-.616.968l-.704 1.452c-.337.675-.667 1.239-.99 1.694-.323.44-.667.792-1.034 1.056-.352.249-.77.425-1.254.528-.469.103-1.027.154-1.672.154zm19.779 0c-1.364 0-2.42-.139-3.168-.418-.733-.279-1.247-.711-1.54-1.298-.293-.601-.462-1.357-.506-2.266L80.787 15.2h3.08l.462 10.758c.029.675.103 1.181.22 1.518s.337.565.66.682c.337.117.829.176 1.474.176.557 0 .953.147 1.188.44.249.279.374.631.374 1.056 0 .455-.154.836-.462 1.144-.308.293-.748.44-1.32.44zm.03 0l.22-3.08c.367 0 .645-.073.836-.22s.381-.403.572-.77l.792-1.496c.367-.704.748-1.291 1.144-1.76.396-.484.792-.865 1.188-1.144.411-.293.814-.499 1.21-.616a3.94 3.94 0 0 1 1.21-.198c.543 0 1.049.117 1.518.352.484.22.946.609 1.386 1.166.44.543.858 1.291 1.254 2.244.279.66.557 1.166.836 1.518s.565.594.858.726a2.33 2.33 0 0 0 .924.198c.557 0 .953.147 1.188.44.235.279.352.631.352 1.056 0 .455-.154.836-.462 1.144-.308.293-.741.44-1.298.44-.719 0-1.371-.117-1.958-.352s-1.049-.587-1.386-1.056l.638-.484c-.132.308-.33.631-.594.968-.249.337-.579.623-.99.858-.396.235-.873.352-1.43.352-.367 0-.799-.073-1.298-.22-.484-.132-.99-.359-1.518-.682-.513-.337-.99-.792-1.43-1.364-.279.513-.587.917-.924 1.21-.337.279-.733.477-1.188.594s-1.005.176-1.65.176zm5.038-4.576c.147.22.323.44.528.66a4.41 4.41 0 0 0 .682.594c.249.161.513.293.792.396a2.59 2.59 0 0 0 .858.154.92.92 0 0 0 .726-.33c.191-.235.198-.579.022-1.034-.073-.191-.176-.403-.308-.638-.117-.249-.257-.484-.418-.704-.147-.22-.315-.403-.506-.55a.85.85 0 0 0-.55-.22c-.191 0-.389.059-.594.176s-.411.301-.616.55c-.205.235-.411.55-.616.946zm8.69 4.576l.22-3.08c.792 0 1.577-.044 2.354-.132a18.73 18.73 0 0 0 2.266-.396c.733-.176 1.43-.403 2.09-.682.675-.279 1.305-.616 1.892-1.012a8.59 8.59 0 0 0-1.43-.682 8.22 8.22 0 0 0-1.65-.418c-.572-.103-1.181-.154-1.826-.154l-.748.022a7.31 7.31 0 0 0-.77.088c-.264.029-.528.073-.791.132l-.44-3.014c.425-.117.872-.198 1.341-.242a10.75 10.75 0 0 1 1.276-.088c.792 0 1.518.088 2.178.264.675.176 1.291.396 1.848.66l1.584.792 1.408.66a3.65 3.65 0 0 0 1.32.264h.814l.352 2.926c-.631.029-1.225.154-1.782.374-.543.205-1.085.469-1.628.792l-1.716.968c-.601.337-1.283.653-2.046.946s-1.643.535-2.64.726-2.156.286-3.476.286zM33.612 57.688A9.46 9.46 0 0 1 33.7 56.5c.059-.455.169-.968.33-1.54.161-.587.403-1.239.726-1.958l2.706.946-.418 1.254c-.117.367-.205.711-.264 1.034-.059.308-.088.616-.088.924 0 .719.161 1.305.484 1.76.337.469.807.814 1.408 1.034.601.235 1.298.352 2.09.352.909 0 1.657-.125 2.244-.374.587-.235 1.041-.55 1.364-.946a3.39 3.39 0 0 0 .682-1.254 5.03 5.03 0 0 0 .198-1.364c0-.601-.103-1.313-.308-2.134-.205-.836-.572-1.775-1.1-2.816l2.838-1.21c.293.513.565 1.115.814 1.804.249.675.447 1.379.594 2.112.161.733.242 1.43.242 2.09 0 .587-.073 1.21-.22 1.87-.147.645-.396 1.283-.748 1.914-.337.631-.799 1.195-1.386 1.694-.587.513-1.313.924-2.178 1.232s-1.899.462-3.102.462c-.968 0-1.877-.11-2.728-.33-.836-.205-1.577-.535-2.222-.99-.631-.455-1.129-1.049-1.496-1.782-.367-.719-.55-1.584-.55-2.596zm7.172-8.36c-.455 0-.843-.154-1.166-.462-.308-.308-.462-.689-.462-1.144s.154-.843.462-1.166a1.59 1.59 0 0 1 1.166-.484 1.49 1.49 0 0 1 1.122.484 1.59 1.59 0 0 1 .484 1.166c0 .455-.161.836-.484 1.144-.308.308-.682.462-1.122.462zm9.817 14.036l-.638-3.08 2.728-.484c.777-.176 1.43-.425 1.958-.748a3.04 3.04 0 0 0 1.188-1.32c.264-.572.396-1.305.396-2.2 0-.865-.132-1.555-.396-2.068s-.616-.77-1.056-.77a1.01 1.01 0 0 0-.77.33 1.95 1.95 0 0 0-.462.748c-.088.279-.132.528-.132.748 0 .132.037.271.11.418s.235.271.484.374.638.161 1.166.176c.543.015 1.276-.037 2.2-.154h3.696c.557 0 .953.147 1.188.44.249.279.374.631.374 1.056 0 .455-.154.836-.462 1.144-.308.293-.748.44-1.32.44h-6.05c-.924 0-1.716-.11-2.376-.33s-1.166-.572-1.518-1.056c-.352-.499-.528-1.159-.528-1.98a6.23 6.23 0 0 1 .33-1.98c.235-.66.557-1.261.968-1.804.411-.557.887-.997 1.43-1.32a3.42 3.42 0 0 1 1.804-.506c.88 0 1.65.271 2.31.814s1.173 1.261 1.54 2.156c.381.895.572 1.87.572 2.926 0 1.657-.352 3.065-1.056 4.224s-1.709 2.053-3.014 2.684c-1.305.645-2.86 1.019-4.664 1.122zm10.283-4.95l.22-3.08c.88 0 1.555-.044 2.024-.132s.792-.249.968-.484c.191-.249.286-.601.286-1.056 0-.411-.059-.902-.176-1.474-.103-.572-.242-1.166-.418-1.782l-.528-1.694 3.036-.836c.191.499.374 1.078.55 1.738l.44 2.046a11.93 11.93 0 0 1 .176 2.002c0 .997-.161 1.811-.484 2.442-.323.616-.777 1.093-1.364 1.43-.572.337-1.261.572-2.068.704a18.57 18.57 0 0 1-2.662.176zm5.962-12.32a1.54 1.54 0 0 1-1.1-.44c-.293-.308-.44-.667-.44-1.078a1.54 1.54 0 0 1 .44-1.1 1.5 1.5 0 0 1 1.1-.462c.411 0 .763.154 1.056.462a1.54 1.54 0 0 1 .44 1.1c0 .411-.147.77-.44 1.078a1.44 1.44 0 0 1-1.056.44zm-3.806-.022a1.54 1.54 0 0 1-1.1-.44c-.293-.308-.44-.667-.44-1.078a1.54 1.54 0 0 1 .44-1.1 1.5 1.5 0 0 1 1.1-.462c.411 0 .763.154 1.056.462a1.54 1.54 0 0 1 .44 1.1c0 .411-.147.77-.44 1.078a1.44 1.44 0 0 1-1.056.44zm7.51 12.232L70.088 42.2h3.08l.462 16.104h-3.08zm4.049 5.082l-1.122-2.728a13.55 13.55 0 0 0 2.134-.924 9.01 9.01 0 0 0 1.716-1.166c.484-.425.858-.887 1.122-1.386.264-.513.396-1.063.396-1.65 0-.616-.139-1.291-.418-2.024s-.616-1.481-1.012-2.244l2.882-1.386a9.05 9.05 0 0 1 .682 1.474l.506 1.386.264.836c.205.704.484 1.173.836 1.408.367.235.953.352 1.76.352.557 0 .953.147 1.188.44.249.279.374.631.374 1.056 0 .455-.154.836-.462 1.144-.308.293-.748.44-1.32.44-.601 0-1.129-.088-1.584-.264s-.821-.433-1.1-.77a2.55 2.55 0 0 1-.506-1.188l.814.462c-.088.777-.345 1.511-.77 2.2-.411.704-.946 1.349-1.606 1.936s-1.401 1.1-2.222 1.54-1.672.792-2.552 1.056zm9.552-4.972l.22-3.08c.528 0 .983-.051 1.364-.154a1.9 1.9 0 0 0 .968-.616c.264-.323.484-.792.66-1.408.191-.616.359-1.437.506-2.464l2.882.484-.132.77-.132.902-.044.836c0 .264.051.499.154.704s.264.381.484.528c.235.132.535.235.902.308a7.47 7.47 0 0 0 1.386.11c.557 0 .953.147 1.188.44.235.279.352.631.352 1.056 0 .455-.154.836-.462 1.144-.293.293-.726.44-1.298.44a9.73 9.73 0 0 1-1.804-.154c-.528-.103-.99-.271-1.386-.506-.381-.249-.697-.572-.946-.968-.235-.411-.381-.909-.44-1.496h1.056c-.264.704-.601 1.269-1.012 1.694-.396.411-.843.719-1.342.924a5.69 5.69 0 0 1-1.562.396 11.35 11.35 0 0 1-1.562.11zm6.138 5.104a1.5 1.5 0 0 1-1.1-.462 1.44 1.44 0 0 1-.44-1.056 1.54 1.54 0 0 1 .44-1.1 1.5 1.5 0 0 1 1.1-.462c.411 0 .763.154 1.056.462a1.54 1.54 0 0 1 .44 1.1 1.44 1.44 0 0 1-.44 1.056c-.293.308-.645.462-1.056.462zm-3.806 0a1.5 1.5 0 0 1-1.1-.462 1.44 1.44 0 0 1-.44-1.056 1.54 1.54 0 0 1 .44-1.1 1.5 1.5 0 0 1 1.1-.462c.411 0 .763.154 1.056.462a1.54 1.54 0 0 1 .44 1.1 1.44 1.44 0 0 1-.44 1.056c-.293.308-.645.462-1.056.462zm6.67-5.104l.22-3.08c.484 0 .88-.037 1.188-.11a1.33 1.33 0 0 0 .748-.55c.205-.293.381-.726.528-1.298.161-.587.337-1.379.528-2.376l2.86.528-.154.77-.154.902a5.39 5.39 0 0 0-.066.792c0 .411.132.741.396.99.264.235.763.352 1.496.352.367 0 .682-.037.946-.11.279-.088.513-.271.704-.55.205-.293.381-.741.528-1.342.161-.616.315-1.445.462-2.486l2.904.462-.176 1.078-.154 1.056a6.1 6.1 0 0 0-.066.792c0 .191.051.374.154.55.117.161.322.293.616.396.308.103.74.154 1.298.154.396 0 .733-.051 1.012-.154.293-.103.513-.271.66-.506.161-.235.242-.543.242-.924 0-.543-.125-1.254-.374-2.134l-.88-2.772 3.102-.924a18.4 18.4 0 0 1 .616 2.024 18.87 18.87 0 0 1 .44 2.068 10.12 10.12 0 0 1 .176 1.738c0 .748-.118 1.415-.352 2.002-.235.572-.565 1.056-.99 1.452s-.932.697-1.518.902-1.232.308-1.936.308c-.851 0-1.548-.081-2.09-.242-.543-.176-.961-.462-1.254-.858-.279-.411-.462-.968-.55-1.672h.748c-.308.865-.653 1.496-1.034 1.892a2.59 2.59 0 0 1-1.364.726c-.514.103-1.159.154-1.936.154-.484 0-.983-.051-1.496-.154-.499-.117-.946-.381-1.342-.792s-.689-1.049-.88-1.914l1.188-.044c-.308.865-.711 1.503-1.21 1.914a3.72 3.72 0 0 1-1.672.814c-.631.117-1.335.176-2.112.176zm11.506-13.618c-.367 0-.69-.139-.968-.418a1.39 1.39 0 0 1-.396-.99c0-.381.132-.704.396-.968.278-.264.601-.396.968-.396.381 0 .704.132.968.396s.396.587.396.968a1.39 1.39 0 0 1-.396.99 1.28 1.28 0 0 1-.968.418zm-1.76 2.904c-.367 0-.69-.139-.968-.418a1.39 1.39 0 0 1-.396-.99c0-.381.132-.704.396-.968.278-.264.601-.396.968-.396.381 0 .704.132.968.396s.396.587.396.968a1.39 1.39 0 0 1-.396.99 1.28 1.28 0 0 1-.968.418zm3.41 0c-.367 0-.69-.139-.968-.418a1.39 1.39 0 0 1-.396-.99c0-.381.132-.704.396-.968.278-.264.601-.396.968-.396.381 0 .704.132.968.396s.396.587.396.968a1.39 1.39 0 0 1-.396.99 1.28 1.28 0 0 1-.968.418z" fill="#f8d000"/></g><g filter="url(#C)"><path d="M26 16.918l.351-2.068h8.217l-.351 2.068h-2.844l-1.219 7.386h-2.53l1.219-7.386H26zm9.534-2.068h3.195l1.311 5.355h.111l3.084-5.355h3.195l-1.57 9.454h-2.511l.905-5.466h-.074l-2.992 5.392h-1.514l-1.2-5.429h-.074l-.923 5.503h-2.511l1.57-9.454z" fill="#fff"/></g></g></g><defs><filter id="B" x="29.612" y="13" width="87.898" height="58.518" filterUnits="userSpaceOnUse" color-interpolation-filters="sRGB"><feFlood flood-opacity="0" result="A"/><feColorMatrix in="SourceAlpha" values="0 0 0 0 0 0 0 0 0 0 0 0 0 0 0 0 0 0 127 0" result="B"/><feOffset dy="4"/><feGaussianBlur stdDeviation="2"/><feComposite in2="B" operator="out"/><feColorMatrix values="0 0 0 0 0 0 0 0 0 0 0 0 0 0 0 0 0 0 0.25 0"/><feBlend in2="A"/><feBlend in="SourceGraphic"/></filter><filter id="C" x="22" y="14.85" width="28.429" height="17.455" filterUnits="userSpaceOnUse" color-interpolation-filters="sRGB"><feFlood flood-opacity="0" result="A"/><feColorMatrix in="SourceAlpha" values="0 0 0 0 0 0 0 0 0 0 0 0 0 0 0 0 0 0 127 0" result="B"/><feOffset dy="4"/><feGaussianBlur stdDeviation="2"/><feComposite in2="B" operator="out"/><feColorMatrix values="0 0 0 0 0 0 0 0 0 0 0 0 0 0 0 0 0 0 0.25 0"/><feBlend in2="A"/><feBlend in="SourceGraphic"/></filter><clipPath id="D"><path fill="#fff" d="M0 0h141v77H0z"/></clipPath></defs></svg>