<svg width="141" height="77" viewBox="0 0 141 77" fill="none" xmlns="http://www.w3.org/2000/svg">
<g clip-path="url(#clip0_322_187)">
<mask id="mask0_322_187" style="mask-type:luminance" maskUnits="userSpaceOnUse" x="0" y="0" width="141" height="77">
<path d="M141 0H0V77H141V0Z" fill="white"/>
</mask>
<g mask="url(#mask0_322_187)">
<g filter="url(#filter0_d_322_187)">
<path d="M66.6917 31.414C65.6504 31.414 64.7484 31.282 63.9857 31.018C63.2377 30.7393 62.6584 30.2993 62.2477 29.698C61.8371 29.082 61.6024 28.2607 61.5437 27.234L61.1477 18.368H64.2497L64.6237 26.156C64.6531 26.7573 64.7484 27.2193 64.9097 27.542C65.0857 27.85 65.3351 28.0627 65.6577 28.18C65.9804 28.2827 66.3984 28.334 66.9117 28.334C67.4691 28.334 67.8651 28.4807 68.0997 28.774C68.3344 29.0527 68.4517 29.4047 68.4517 29.83C68.4517 30.2847 68.2977 30.666 67.9897 30.974C67.6964 31.2673 67.2637 31.414 66.6917 31.414ZM62.6657 29.368C61.6831 29.588 60.7371 29.6907 59.8277 29.676C58.9184 29.6467 58.1044 29.4853 57.3857 29.192C56.6671 28.884 56.0951 28.444 55.6697 27.872C55.2591 27.3 55.0537 26.574 55.0537 25.694C55.0537 24.9167 55.2224 24.2127 55.5597 23.582C55.9117 22.9367 56.3957 22.372 57.0117 21.888C57.6424 21.404 58.3757 20.9933 59.2117 20.656C60.0477 20.3187 60.9571 20.062 61.9397 19.886L62.2477 23.01C61.6171 23.0393 61.0451 23.1273 60.5317 23.274C60.0331 23.406 59.6004 23.582 59.2337 23.802C58.8817 24.022 58.6104 24.2713 58.4197 24.55C58.2291 24.814 58.1337 25.1 58.1337 25.408C58.1337 25.6573 58.2217 25.8627 58.3977 26.024C58.5737 26.1853 58.8084 26.3173 59.1017 26.42C59.3951 26.508 59.7324 26.5593 60.1137 26.574C60.4951 26.5887 60.8837 26.5667 61.2797 26.508C61.6904 26.4493 62.0937 26.354 62.4897 26.222L62.6657 29.368ZM62.7317 16.102C62.3064 16.102 61.9397 15.9553 61.6317 15.662C61.3384 15.354 61.1917 14.9947 61.1917 14.584C61.1917 14.1587 61.3384 13.792 61.6317 13.484C61.9397 13.176 62.3064 13.022 62.7317 13.022C63.1424 13.022 63.4944 13.176 63.7877 13.484C64.0811 13.792 64.2277 14.1587 64.2277 14.584C64.2277 14.9947 64.0811 15.354 63.7877 15.662C63.4944 15.9553 63.1424 16.102 62.7317 16.102ZM58.9257 16.08C58.5004 16.08 58.1337 15.9333 57.8257 15.64C57.5324 15.332 57.3857 14.9727 57.3857 14.562C57.3857 14.1367 57.5324 13.77 57.8257 13.462C58.1337 13.154 58.5004 13 58.9257 13C59.3364 13 59.6884 13.154 59.9817 13.462C60.2751 13.77 60.4217 14.1367 60.4217 14.562C60.4217 14.9727 60.2751 15.332 59.9817 15.64C59.6884 15.9333 59.3364 16.08 58.9257 16.08ZM66.6844 31.414L66.9044 28.334C67.2417 28.334 67.5277 28.2533 67.7624 28.092C68.0117 27.916 68.2684 27.63 68.5324 27.234C68.7964 26.8233 69.1044 26.2733 69.4564 25.584C69.8964 24.704 70.351 24.0147 70.8204 23.516C71.3044 23.0173 71.7957 22.6653 72.2944 22.46C72.8077 22.24 73.321 22.13 73.8344 22.13C74.4797 22.13 75.081 22.2693 75.6384 22.548C76.1957 22.8267 76.6797 23.208 77.0904 23.692C77.501 24.1613 77.8164 24.704 78.0364 25.32C78.271 25.9213 78.3884 26.5447 78.3884 27.19C78.3884 27.9673 78.2197 28.6713 77.8824 29.302C77.5597 29.918 77.105 30.4093 76.5184 30.776C75.9464 31.128 75.2864 31.304 74.5384 31.304C73.9077 31.304 73.1744 31.194 72.3384 30.974C71.5024 30.754 70.6224 30.292 69.6984 29.588L70.8204 26.926C71.4804 27.3807 72.0964 27.7107 72.6684 27.916C73.255 28.1213 73.739 28.224 74.1204 28.224C74.4137 28.224 74.6557 28.1947 74.8464 28.136C75.037 28.0773 75.1764 27.982 75.2644 27.85C75.3524 27.718 75.3964 27.542 75.3964 27.322C75.3964 27.014 75.323 26.6987 75.1764 26.376C75.0297 26.0533 74.8317 25.782 74.5824 25.562C74.3477 25.3273 74.069 25.21 73.7464 25.21C73.4384 25.21 73.1744 25.3273 72.9544 25.562C72.749 25.782 72.5437 26.1047 72.3384 26.53C72.1477 26.9407 71.913 27.4247 71.6344 27.982C71.297 28.6567 70.967 29.2213 70.6444 29.676C70.3217 30.116 69.977 30.468 69.6104 30.732C69.2584 30.9813 68.8404 31.1573 68.3564 31.26C67.887 31.3627 67.3297 31.414 66.6844 31.414ZM86.463 31.414C85.099 31.414 84.043 31.2747 83.295 30.996C82.5617 30.7173 82.0484 30.2847 81.755 29.698C81.4617 29.0967 81.293 28.3413 81.249 27.432L80.787 15.2H83.867L84.329 25.958C84.3584 26.6327 84.4317 27.1387 84.549 27.476C84.6664 27.8133 84.8864 28.0407 85.209 28.158C85.5464 28.2753 86.0377 28.334 86.683 28.334C87.2404 28.334 87.6364 28.4807 87.871 28.774C88.1204 29.0527 88.245 29.4047 88.245 29.83C88.245 30.2847 88.091 30.666 87.783 30.974C87.475 31.2673 87.035 31.414 86.463 31.414ZM86.4929 31.414L86.7129 28.334C87.0796 28.334 87.3583 28.2607 87.5489 28.114C87.7396 27.9673 87.9303 27.7107 88.1209 27.344C88.3116 26.9773 88.5756 26.4787 88.9129 25.848C89.2796 25.144 89.6609 24.5573 90.0569 24.088C90.4529 23.604 90.8489 23.2227 91.2449 22.944C91.6556 22.6507 92.0589 22.4453 92.4549 22.328C92.8656 22.196 93.2689 22.13 93.6649 22.13C94.2076 22.13 94.7136 22.2473 95.1829 22.482C95.6669 22.702 96.1289 23.0907 96.5689 23.648C97.0089 24.1907 97.4269 24.9387 97.8229 25.892C98.1016 26.552 98.3803 27.058 98.6589 27.41C98.9376 27.762 99.2236 28.004 99.5169 28.136C99.8249 28.268 100.133 28.334 100.441 28.334C100.998 28.334 101.394 28.4807 101.629 28.774C101.864 29.0527 101.981 29.4047 101.981 29.83C101.981 30.2847 101.827 30.666 101.519 30.974C101.211 31.2673 100.778 31.414 100.221 31.414C99.5023 31.414 98.8496 31.2967 98.2629 31.062C97.6763 30.8273 97.2143 30.4753 96.8769 30.006L97.5149 29.522C97.3829 29.83 97.1849 30.1527 96.9209 30.49C96.6716 30.8273 96.3416 31.1133 95.9309 31.348C95.5349 31.5827 95.0583 31.7 94.5009 31.7C94.1343 31.7 93.7016 31.6267 93.2029 31.48C92.7189 31.348 92.2129 31.1207 91.6849 30.798C91.1716 30.4607 90.6949 30.006 90.2549 29.434C89.9763 29.9473 89.6683 30.3507 89.3309 30.644C88.9936 30.9227 88.5976 31.1207 88.1429 31.238C87.6883 31.3553 87.1383 31.414 86.4929 31.414ZM91.5309 26.838C91.6776 27.058 91.8536 27.278 92.0589 27.498C92.2643 27.718 92.4916 27.916 92.7409 28.092C92.9903 28.2533 93.2543 28.3853 93.5329 28.488C93.8263 28.5907 94.1123 28.642 94.3909 28.642C94.6843 28.642 94.9263 28.532 95.1169 28.312C95.3076 28.0773 95.3149 27.7327 95.1389 27.278C95.0656 27.0873 94.9629 26.8747 94.8309 26.64C94.7136 26.3907 94.5743 26.156 94.4129 25.936C94.2663 25.716 94.0976 25.5327 93.9069 25.386C93.7309 25.2393 93.5476 25.166 93.3569 25.166C93.1663 25.166 92.9683 25.2247 92.7629 25.342C92.5576 25.4593 92.3523 25.6427 92.1469 25.892C91.9416 26.1267 91.7363 26.442 91.5309 26.838ZM100.221 31.414L100.441 28.334C101.233 28.334 102.018 28.29 102.795 28.202C103.572 28.114 104.328 27.982 105.061 27.806C105.794 27.63 106.491 27.4027 107.151 27.124C107.826 26.8453 108.456 26.508 109.043 26.112C108.603 25.848 108.126 25.6207 107.613 25.43C107.1 25.2393 106.55 25.1 105.963 25.012C105.391 24.9093 104.782 24.858 104.137 24.858C103.902 24.858 103.653 24.8653 103.389 24.88C103.14 24.8947 102.883 24.924 102.619 24.968C102.355 24.9973 102.091 25.0413 101.828 25.1L101.388 22.086C101.813 21.9687 102.26 21.888 102.729 21.844C103.213 21.7853 103.638 21.756 104.005 21.756C104.797 21.756 105.523 21.844 106.183 22.02C106.858 22.196 107.474 22.416 108.031 22.68C108.603 22.944 109.131 23.208 109.615 23.472C110.114 23.736 110.583 23.956 111.023 24.132C111.478 24.308 111.918 24.396 112.343 24.396H113.157L113.509 27.322C112.878 27.3513 112.284 27.476 111.727 27.696C111.184 27.9013 110.642 28.1653 110.099 28.488C109.571 28.796 108.999 29.1187 108.383 29.456C107.782 29.7933 107.1 30.1087 106.337 30.402C105.574 30.6953 104.694 30.9373 103.697 31.128C102.7 31.3187 101.541 31.414 100.221 31.414ZM33.6118 57.688C33.6118 57.3507 33.6412 56.9547 33.6998 56.5C33.7585 56.0453 33.8685 55.532 34.0298 54.96C34.1912 54.3733 34.4332 53.7207 34.7558 53.002L37.4618 53.948C37.3005 54.4027 37.1612 54.8207 37.0438 55.202C36.9265 55.5687 36.8385 55.9133 36.7798 56.236C36.7212 56.544 36.6918 56.852 36.6918 57.16C36.6918 57.8787 36.8532 58.4653 37.1758 58.92C37.5132 59.3893 37.9825 59.734 38.5838 59.954C39.1852 60.1887 39.8818 60.306 40.6738 60.306C41.5832 60.306 42.3312 60.1813 42.9178 59.932C43.5045 59.6973 43.9592 59.382 44.2818 58.986C44.6045 58.6047 44.8318 58.1867 44.9638 57.732C45.0958 57.2627 45.1618 56.808 45.1618 56.368C45.1618 55.7667 45.0592 55.0553 44.8538 54.234C44.6485 53.398 44.2818 52.4593 43.7538 51.418L46.5918 50.208C46.8852 50.7213 47.1565 51.3227 47.4058 52.012C47.6552 52.6867 47.8532 53.3907 47.9998 54.124C48.1612 54.8573 48.2418 55.554 48.2418 56.214C48.2418 56.8007 48.1685 57.424 48.0218 58.084C47.8752 58.7293 47.6258 59.3673 47.2738 59.998C46.9365 60.6287 46.4745 61.1933 45.8878 61.692C45.3012 62.2053 44.5752 62.616 43.7098 62.924C42.8445 63.232 41.8105 63.386 40.6078 63.386C39.6398 63.386 38.7305 63.276 37.8798 63.056C37.0438 62.8507 36.3032 62.5207 35.6578 62.066C35.0272 61.6113 34.5285 61.0173 34.1618 60.284C33.7952 59.5653 33.6118 58.7 33.6118 57.688ZM40.7838 49.328C40.3292 49.328 39.9405 49.174 39.6178 48.866C39.3098 48.558 39.1558 48.1767 39.1558 47.722C39.1558 47.2673 39.3098 46.8787 39.6178 46.556C39.9405 46.2333 40.3292 46.072 40.7838 46.072C41.2238 46.072 41.5978 46.2333 41.9058 46.556C42.2285 46.8787 42.3898 47.2673 42.3898 47.722C42.3898 48.1767 42.2285 48.558 41.9058 48.866C41.5978 49.174 41.2238 49.328 40.7838 49.328ZM50.6005 63.364L49.9625 60.284C51.0038 60.152 51.9131 59.9907 52.6905 59.8C53.4678 59.624 54.1205 59.3747 54.6485 59.052C55.1765 58.7293 55.5725 58.2893 55.8365 57.732C56.1005 57.16 56.2325 56.4267 56.2325 55.532C56.2325 54.6667 56.1005 53.9773 55.8365 53.464C55.5725 52.9507 55.2205 52.694 54.7805 52.694C54.4725 52.694 54.2158 52.804 54.0105 53.024C53.8051 53.2293 53.6511 53.4787 53.5485 53.772C53.4605 54.0507 53.4165 54.3 53.4165 54.52C53.4165 54.652 53.4531 54.7913 53.5265 54.938C53.5998 55.0847 53.7611 55.2093 54.0105 55.312C54.2598 55.4147 54.6485 55.4733 55.1765 55.488C55.7191 55.5027 56.4525 55.4513 57.3765 55.334H61.0725C61.6298 55.334 62.0258 55.4807 62.2605 55.774C62.5098 56.0527 62.6345 56.4047 62.6345 56.83C62.6345 57.2847 62.4805 57.666 62.1725 57.974C61.8645 58.2673 61.4245 58.414 60.8525 58.414H54.8025C53.8785 58.414 53.0865 58.304 52.4265 58.084C51.7665 57.864 51.2605 57.512 50.9085 57.028C50.5565 56.5293 50.3805 55.8693 50.3805 55.048C50.3805 54.388 50.4905 53.728 50.7105 53.068C50.9451 52.408 51.2678 51.8067 51.6785 51.264C52.0891 50.7067 52.5658 50.2667 53.1085 49.944C53.6658 49.6067 54.2671 49.438 54.9125 49.438C55.7925 49.438 56.5625 49.7093 57.2225 50.252C57.8825 50.7947 58.3958 51.5133 58.7625 52.408C59.1438 53.3027 59.3345 54.278 59.3345 55.334C59.3345 56.9913 58.9825 58.3993 58.2785 59.558C57.5745 60.7167 56.5698 61.6113 55.2645 62.242C53.9591 62.8873 52.4045 63.2613 50.6005 63.364ZM60.8836 58.414L61.1036 55.334C61.9836 55.334 62.6582 55.29 63.1276 55.202C63.5969 55.114 63.9196 54.9527 64.0956 54.718C64.2862 54.4687 64.3816 54.1167 64.3816 53.662C64.3816 53.2513 64.3229 52.76 64.2056 52.188C64.1029 51.616 63.9636 51.022 63.7876 50.406C63.6262 49.79 63.4502 49.2253 63.2596 48.712L66.2956 47.876C66.4862 48.3747 66.6696 48.954 66.8456 49.614C67.0216 50.274 67.1682 50.956 67.2856 51.66C67.4029 52.3493 67.4616 53.0167 67.4616 53.662C67.4616 54.6593 67.3002 55.4733 66.9776 56.104C66.6549 56.72 66.2002 57.1967 65.6136 57.534C65.0416 57.8713 64.3522 58.106 63.5456 58.238C62.7389 58.3553 61.8516 58.414 60.8836 58.414ZM66.8456 46.094C66.4202 46.094 66.0536 45.9473 65.7456 45.654C65.4522 45.346 65.3056 44.9867 65.3056 44.576C65.3056 44.1507 65.4522 43.784 65.7456 43.476C66.0536 43.168 66.4202 43.014 66.8456 43.014C67.2562 43.014 67.6082 43.168 67.9016 43.476C68.1949 43.784 68.3416 44.1507 68.3416 44.576C68.3416 44.9867 68.1949 45.346 67.9016 45.654C67.6082 45.9473 67.2562 46.094 66.8456 46.094ZM63.0396 46.072C62.6142 46.072 62.2476 45.9253 61.9396 45.632C61.6462 45.324 61.4996 44.9647 61.4996 44.554C61.4996 44.1287 61.6462 43.762 61.9396 43.454C62.2476 43.146 62.6142 42.992 63.0396 42.992C63.4502 42.992 63.8022 43.146 64.0956 43.454C64.3889 43.762 64.5356 44.1287 64.5356 44.554C64.5356 44.9647 64.3889 45.324 64.0956 45.632C63.8022 45.9253 63.4502 46.072 63.0396 46.072ZM70.5498 58.304L70.0878 42.2H73.1678L73.6298 58.304H70.5498ZM74.5989 63.386L73.4769 60.658C74.2542 60.394 74.9655 60.086 75.6109 59.734C76.2709 59.382 76.8429 58.9933 77.3269 58.568C77.8109 58.1427 78.1849 57.6807 78.4489 57.182C78.7129 56.6687 78.8449 56.1187 78.8449 55.532C78.8449 54.916 78.7055 54.2413 78.4269 53.508C78.1482 52.7747 77.8109 52.0267 77.4149 51.264L80.2969 49.878C80.5609 50.3327 80.7882 50.824 80.9789 51.352C81.1842 51.8653 81.3529 52.3273 81.4849 52.738C81.6169 53.1487 81.7049 53.4273 81.7489 53.574C81.9542 54.278 82.2329 54.7473 82.5849 54.982C82.9515 55.2167 83.5382 55.334 84.3449 55.334C84.9022 55.334 85.2982 55.4807 85.5329 55.774C85.7822 56.0527 85.9069 56.4047 85.9069 56.83C85.9069 57.2847 85.7529 57.666 85.4449 57.974C85.1369 58.2673 84.6969 58.414 84.1249 58.414C83.5235 58.414 82.9955 58.326 82.5409 58.15C82.0862 57.974 81.7195 57.7173 81.4409 57.38C81.1769 57.0427 81.0082 56.6467 80.9349 56.192L81.7489 56.654C81.6609 57.4313 81.4042 58.1647 80.9789 58.854C80.5682 59.558 80.0329 60.2033 79.3729 60.79C78.7129 61.3767 77.9722 61.89 77.1509 62.33C76.3295 62.77 75.4789 63.122 74.5989 63.386ZM84.1512 58.414L84.3712 55.334C84.8992 55.334 85.3538 55.2827 85.7352 55.18C86.1165 55.0773 86.4392 54.872 86.7032 54.564C86.9672 54.2413 87.1872 53.772 87.3632 53.156C87.5538 52.54 87.7225 51.7187 87.8692 50.692L90.7512 51.176C90.7218 51.396 90.6778 51.6527 90.6191 51.946C90.5752 52.2393 90.5312 52.54 90.4872 52.848C90.4578 53.1413 90.4432 53.42 90.4432 53.684C90.4432 53.948 90.4945 54.1827 90.5972 54.388C90.6998 54.5933 90.8612 54.7693 91.0812 54.916C91.3158 55.048 91.6165 55.1507 91.9832 55.224C92.3645 55.2973 92.8265 55.334 93.3692 55.334C93.9265 55.334 94.3225 55.4807 94.5572 55.774C94.7918 56.0527 94.9092 56.4047 94.9092 56.83C94.9092 57.2847 94.7552 57.666 94.4472 57.974C94.1538 58.2673 93.7212 58.414 93.1492 58.414C92.4892 58.414 91.8878 58.3627 91.3452 58.26C90.8172 58.1573 90.3552 57.9887 89.9591 57.754C89.5778 57.5047 89.2625 57.182 89.0132 56.786C88.7785 56.3753 88.6318 55.8767 88.5732 55.29H89.6292C89.3652 55.994 89.0278 56.5587 88.6172 56.984C88.2212 57.3947 87.7738 57.7027 87.2752 57.908C86.7765 58.1133 86.2558 58.2453 85.7132 58.304C85.1852 58.3773 84.6645 58.414 84.1512 58.414ZM90.2892 63.518C89.8638 63.518 89.4972 63.364 89.1892 63.056C88.8958 62.7627 88.7492 62.4107 88.7492 62C88.7492 61.5747 88.8958 61.208 89.1892 60.9C89.4972 60.592 89.8638 60.438 90.2892 60.438C90.6998 60.438 91.0518 60.592 91.3452 60.9C91.6385 61.208 91.7852 61.5747 91.7852 62C91.7852 62.4107 91.6385 62.7627 91.3452 63.056C91.0518 63.364 90.6998 63.518 90.2892 63.518ZM86.4832 63.518C86.0578 63.518 85.6912 63.364 85.3832 63.056C85.0898 62.7627 84.9432 62.4107 84.9432 62C84.9432 61.5747 85.0898 61.208 85.3832 60.9C85.6912 60.592 86.0578 60.438 86.4832 60.438C86.8938 60.438 87.2458 60.592 87.5392 60.9C87.8325 61.208 87.9792 61.5747 87.9792 62C87.9792 62.4107 87.8325 62.7627 87.5392 63.056C87.2458 63.364 86.8938 63.518 86.4832 63.518ZM93.1531 58.414L93.3731 55.334C93.8571 55.334 94.2531 55.2973 94.5611 55.224C94.8691 55.136 95.1184 54.9527 95.3091 54.674C95.5144 54.3807 95.6904 53.948 95.8371 53.376C95.9984 52.7893 96.1744 51.9973 96.3651 51L99.2251 51.528C99.1811 51.748 99.1298 52.0047 99.0711 52.298C99.0124 52.5913 98.9611 52.892 98.9171 53.2C98.8731 53.4933 98.8511 53.7573 98.8511 53.992C98.8511 54.4027 98.9831 54.7327 99.2471 54.982C99.5111 55.2167 100.01 55.334 100.743 55.334C101.11 55.334 101.425 55.2973 101.689 55.224C101.968 55.136 102.202 54.9527 102.393 54.674C102.598 54.3807 102.774 53.9333 102.921 53.332C103.082 52.716 103.236 51.8873 103.383 50.846L106.287 51.308C106.228 51.6453 106.169 52.0047 106.111 52.386C106.052 52.7673 106.001 53.1193 105.957 53.442C105.913 53.7647 105.891 54.0287 105.891 54.234C105.891 54.4247 105.942 54.608 106.045 54.784C106.162 54.9453 106.367 55.0773 106.661 55.18C106.969 55.2827 107.401 55.334 107.959 55.334C108.355 55.334 108.692 55.2827 108.971 55.18C109.264 55.0773 109.484 54.9087 109.631 54.674C109.792 54.4393 109.873 54.1313 109.873 53.75C109.873 53.2073 109.748 52.496 109.499 51.616C109.249 50.736 108.956 49.812 108.619 48.844L111.721 47.92C111.955 48.5507 112.161 49.2253 112.337 49.944C112.527 50.648 112.674 51.3373 112.777 52.012C112.894 52.672 112.953 53.2513 112.953 53.75C112.953 54.498 112.835 55.1653 112.601 55.752C112.366 56.324 112.036 56.808 111.611 57.204C111.185 57.6 110.679 57.9007 110.093 58.106C109.506 58.3113 108.861 58.414 108.157 58.414C107.306 58.414 106.609 58.3333 106.067 58.172C105.524 57.996 105.106 57.71 104.813 57.314C104.534 56.9033 104.351 56.346 104.263 55.642H105.011C104.703 56.5073 104.358 57.138 103.977 57.534C103.595 57.9153 103.141 58.1573 102.613 58.26C102.099 58.3627 101.454 58.414 100.677 58.414C100.193 58.414 99.6944 58.3627 99.1811 58.26C98.6824 58.1427 98.2351 57.8787 97.8391 57.468C97.4431 57.0573 97.1498 56.4193 96.9591 55.554L98.1471 55.51C97.8391 56.3753 97.4358 57.0133 96.9371 57.424C96.4531 57.8347 95.8958 58.106 95.2651 58.238C94.6344 58.3553 93.9304 58.414 93.1531 58.414ZM104.659 44.796C104.292 44.796 103.969 44.6567 103.691 44.378C103.427 44.0993 103.295 43.7693 103.295 43.388C103.295 43.0067 103.427 42.684 103.691 42.42C103.969 42.156 104.292 42.024 104.659 42.024C105.04 42.024 105.363 42.156 105.627 42.42C105.891 42.684 106.023 43.0067 106.023 43.388C106.023 43.7693 105.891 44.0993 105.627 44.378C105.363 44.6567 105.04 44.796 104.659 44.796ZM102.899 47.7C102.532 47.7 102.209 47.5607 101.931 47.282C101.667 47.0033 101.535 46.6733 101.535 46.292C101.535 45.9107 101.667 45.588 101.931 45.324C102.209 45.06 102.532 44.928 102.899 44.928C103.28 44.928 103.603 45.06 103.867 45.324C104.131 45.588 104.263 45.9107 104.263 46.292C104.263 46.6733 104.131 47.0033 103.867 47.282C103.603 47.5607 103.28 47.7 102.899 47.7ZM106.309 47.7C105.942 47.7 105.619 47.5607 105.341 47.282C105.077 47.0033 104.945 46.6733 104.945 46.292C104.945 45.9107 105.077 45.588 105.341 45.324C105.619 45.06 105.942 44.928 106.309 44.928C106.69 44.928 107.013 45.06 107.277 45.324C107.541 45.588 107.673 45.9107 107.673 46.292C107.673 46.6733 107.541 47.0033 107.277 47.282C107.013 47.5607 106.69 47.7 106.309 47.7Z" fill="#F8D000"/>
</g>
<g filter="url(#filter1_d_322_187)">
<path d="M26 16.9177L26.3508 14.8496H34.5681L34.2173 16.9177H31.3735L30.1548 24.3041H27.625L28.8437 16.9177H26ZM35.5341 14.8496H38.7287L40.0398 20.2047H40.1506L43.2344 14.8496H46.429L44.8594 24.3041H42.3481L43.2529 18.8382H43.179L40.1875 24.2302H38.6733L37.4731 18.8013H37.3992L36.4759 24.3041H33.9645L35.5341 14.8496Z" fill="white"/>
</g>
</g>
</g>
<defs>
<filter id="filter0_d_322_187" x="29.6118" y="13" width="87.8975" height="58.5181" filterUnits="userSpaceOnUse" color-interpolation-filters="sRGB">
<feFlood flood-opacity="0" result="BackgroundImageFix"/>
<feColorMatrix in="SourceAlpha" type="matrix" values="0 0 0 0 0 0 0 0 0 0 0 0 0 0 0 0 0 0 127 0" result="hardAlpha"/>
<feOffset dy="4"/>
<feGaussianBlur stdDeviation="2"/>
<feComposite in2="hardAlpha" operator="out"/>
<feColorMatrix type="matrix" values="0 0 0 0 0 0 0 0 0 0 0 0 0 0 0 0 0 0 0.25 0"/>
<feBlend mode="normal" in2="BackgroundImageFix" result="effect1_dropShadow_322_187"/>
<feBlend mode="normal" in="SourceGraphic" in2="effect1_dropShadow_322_187" result="shape"/>
</filter>
<filter id="filter1_d_322_187" x="22" y="14.8496" width="28.4292" height="17.4546" filterUnits="userSpaceOnUse" color-interpolation-filters="sRGB">
<feFlood flood-opacity="0" result="BackgroundImageFix"/>
<feColorMatrix in="SourceAlpha" type="matrix" values="0 0 0 0 0 0 0 0 0 0 0 0 0 0 0 0 0 0 127 0" result="hardAlpha"/>
<feOffset dy="4"/>
<feGaussianBlur stdDeviation="2"/>
<feComposite in2="hardAlpha" operator="out"/>
<feColorMatrix type="matrix" values="0 0 0 0 0 0 0 0 0 0 0 0 0 0 0 0 0 0 0.25 0"/>
<feBlend mode="normal" in2="BackgroundImageFix" result="effect1_dropShadow_322_187"/>
<feBlend mode="normal" in="SourceGraphic" in2="effect1_dropShadow_322_187" result="shape"/>
</filter>
<clipPath id="clip0_322_187">
<rect width="141" height="77" fill="white"/>
</clipPath>
</defs>
</svg>
